<svg width="426" height="300" viewBox="0 0 426 300" fill="none" xmlns="http://www.w3.org/2000/svg">
<path opacity="0.1" d="M239.669 43.7718C212.447 43.7289 186.218 35.3021 161.124 25.9243C136.03 16.5464 111.135 6.08892 84.4056 1.60268C67.1937 -1.28161 47.6738 -1.08673 34.2681 9.1564C21.3709 19.0136 17.6782 35.3722 15.9101 50.5031C14.584 61.8765 13.9894 73.8229 19.106 84.2454C22.6618 91.4834 28.7251 97.4546 33.0163 104.357C47.9477 128.367 39.0874 158.925 24.7077 183.41C17.9598 194.873 10.0541 205.877 4.96485 218.022C-0.1244 230.167 -2.18592 243.949 3.07154 255.966C8.28987 267.881 20.0253 276.569 32.5782 282.497C58.1183 294.58 87.7971 297.238 116.682 298.318C180.632 300.711 244.68 296.447 308.559 292.16C332.198 290.577 355.943 288.979 379.085 284.251C391.935 281.628 405.161 277.719 414.252 269.081C425.792 258.121 428.108 240.172 419.654 227.244C405.47 205.538 368.246 201.344 358.036 177.887C352.414 164.974 357.187 150.214 364.24 137.796C379.375 111.178 405.486 87.3713 405.842 57.5462C406.084 37.0599 392.413 17.0375 372.056 8.07284C350.713 -1.33618 321.672 0.979048 306.795 18.316C291.477 36.1674 263.707 43.8107 239.669 43.7718Z" fill="#AB00EA"/>
<path d="M344.182 243.995C344.182 243.995 339.374 240.834 334.609 243.083C334.609 243.083 336.076 245.901 342.108 245.632L344.182 243.995Z" fill="#AB00EA"/>
<path d="M344.772 244.167C344.772 244.167 346.235 249.717 342.57 253.494C342.57 253.494 340.364 251.202 342.57 245.597L344.772 244.167Z" fill="#AB00EA"/>
<path d="M350.769 238.839C350.769 238.839 350.413 234.115 339.718 235.682C339.718 235.682 339.667 238.73 343.423 240.172C347.178 241.614 348.895 240.398 350.769 238.839Z" fill="#AB00EA"/>
<path d="M351.426 238.803C351.426 238.803 355.952 240.253 351.919 250.251C351.919 250.251 348.934 249.584 348.398 245.609C347.863 241.633 349.466 240.253 351.426 238.803Z" fill="#AB00EA"/>
<path d="M357.486 232.107C357.486 232.107 358.096 224.339 347.162 225.138C347.162 225.138 346.38 232.154 355.553 233.974L357.486 232.107Z" fill="#AB00EA"/>
<path d="M364.711 223.337C364.711 223.337 363.209 214.536 352.283 217.16C352.283 217.16 352.24 224.772 362.923 225.438L364.711 223.337Z" fill="#AB00EA"/>
<path d="M369.988 214.272C369.988 214.272 367.48 205.697 356.652 208.265C356.652 208.265 359.226 215.975 369.268 215.858L369.988 214.272Z" fill="#AB00EA"/>
<path d="M375.003 205.42C375.003 205.42 372.55 196.521 362.094 199.184C362.094 199.184 365.583 207.638 374.314 206.928L375.003 205.42Z" fill="#AB00EA"/>
<path d="M378.238 197.009C378.238 197.009 376.352 186.142 366.616 188.535C366.616 188.535 369.448 198.435 377.53 198.591L378.238 197.009Z" fill="#AB00EA"/>
<path d="M381.265 186.847C381.265 186.847 379.004 175.875 369.139 179.052C369.139 179.052 373.008 189.416 380.569 188.344L381.265 186.847Z" fill="#AB00EA"/>
<path d="M383.143 177.388C383.143 177.388 379.548 166.42 371.924 166.716C371.924 166.716 375.601 178.304 382.486 179.578L383.143 177.388Z" fill="#AB00EA"/>
<path d="M384.336 168.162C384.336 168.162 380.424 154.957 374.22 155.974C374.22 155.974 376.927 166.069 384.117 170.216L384.336 168.162Z" fill="#AB00EA"/>
<path d="M385.001 157.139C385.001 157.139 381.336 146.132 375.222 145.696C375.222 145.696 377.717 156.523 384.876 159.996L385.001 157.139Z" fill="#AB00EA"/>
<path d="M385.756 146.877C385.756 146.877 381.183 135.858 377.15 135.612C377.15 135.612 379.133 146.456 385.365 148.685L385.756 146.877Z" fill="#AB00EA"/>
<path d="M386.261 137.319C386.261 137.319 383.437 125.338 379.407 124.364C379.407 124.364 379.963 134.147 385.858 138.212L386.261 137.319Z" fill="#AB00EA"/>
<path d="M387.783 124.812C387.783 124.812 384.825 115.278 381.551 113.824C381.551 113.824 382.2 125.065 387.028 127.147L387.783 124.812Z" fill="#AB00EA"/>
<path d="M389.046 116.599L389.644 99.7847C389.644 99.7847 383.534 112.472 388.596 119.565L389.046 116.599Z" fill="#AB00EA"/>
<path d="M393.775 99.89C393.775 99.89 398.18 87.6084 399.252 86.9263C399.252 86.9263 390.607 94.8892 391.452 105.14L393.775 99.89Z" fill="#AB00EA"/>
<path d="M357.783 232.053C357.783 232.053 365.536 231.039 365.302 241.961C365.302 241.961 358.295 243.095 356.011 234.068L357.783 232.053Z" fill="#AB00EA"/>
<path d="M365.075 223.045C365.075 223.045 374.037 223.014 373.289 234.193C373.289 234.193 365.771 235.529 363.287 225.154L365.075 223.045Z" fill="#AB00EA"/>
<path d="M370.074 214.985C370.074 214.985 378.206 211.185 383.413 220.991C383.413 220.991 375.899 224.16 369.358 216.567L370.074 214.985Z" fill="#AB00EA"/>
<path d="M375.187 205.502C375.187 205.502 383.511 201.456 388.401 211.04C388.401 211.04 379.728 214.018 374.498 207.018L375.187 205.502Z" fill="#AB00EA"/>
<path d="M378.132 197.243C378.132 197.243 386.147 189.615 392.543 197.332C392.543 197.332 384.356 203.608 377.76 198.942L378.132 197.243Z" fill="#AB00EA"/>
<path d="M380.812 186.586C380.812 186.586 388.878 178.791 395.223 186.945C395.223 186.945 386.171 193.349 380.526 188.223L380.812 186.586Z" fill="#AB00EA"/>
<path d="M382.322 177.076C382.322 177.076 388.534 167.332 395.845 169.51C395.845 169.51 389.402 179.828 382.392 179.368L382.322 177.076Z" fill="#AB00EA"/>
<path d="M384.152 168.099C384.152 168.099 390.411 155.825 396.33 157.965C396.33 157.965 391.82 167.398 383.992 170.169L384.152 168.099Z" fill="#AB00EA"/>
<path d="M384.583 156.52C384.583 156.52 391.018 146.861 397.046 148.038C397.046 148.038 391.788 157.833 383.961 159.314L384.583 156.52Z" fill="#AB00EA"/>
<path d="M385.076 146.658C385.076 146.658 390.059 135.823 394.116 135.725C394.116 135.725 391.722 146.491 385.408 148.482L385.076 146.658Z" fill="#AB00EA"/>
<path d="M386.061 137.082C386.061 137.082 391.604 126.106 395.77 126.086C395.77 126.086 392.934 135.468 386.249 138.048L386.061 137.082Z" fill="#AB00EA"/>
<path d="M386.898 125.486C386.898 125.486 391.045 116.404 394.475 115.375C394.475 115.375 392.402 126.445 387.352 127.895L386.898 125.486Z" fill="#AB00EA"/>
<path d="M389.543 116.28L398.806 102.217C398.806 102.217 396.436 116.089 388.189 118.977L389.543 116.28Z" fill="#AB00EA"/>
<path d="M395.903 101.02C395.903 101.02 406.672 93.6145 407.06 92.4141C407.06 92.4141 401.583 102.79 391.413 104.622L395.903 101.02Z" fill="#AB00EA"/>
<path d="M396.545 97.6877C396.545 97.6877 408.91 85.8426 412.067 85.8582C412.067 85.8582 401.869 86.322 396.248 97.0562L396.545 97.6877Z" fill="#AB00EA"/>
<path d="M387.016 127.244L387.466 127.302C389.789 109.178 393.177 98.4596 397.007 97.1421L396.858 96.7173C392.801 98.1205 389.398 108.675 387.016 127.244Z" fill="#444053"/>
<path d="M383.601 170.574L384.281 170.633C384.422 168.941 384.532 167.207 384.606 165.484C385.256 150.482 386.265 136.711 387.587 126.386L387.196 125.899C385.87 136.244 384.579 150.435 383.929 165.453C383.851 167.168 383.742 168.891 383.601 170.574Z" fill="#444053"/>
<path d="M331.484 252.625C331.605 252.57 343.587 247.242 356.023 234.524C363.307 227.076 369.361 218.525 373.958 209.189C379.705 197.523 383.21 183.187 384.387 169.261L383.679 169.592C381.039 200.848 366.757 222.211 355.397 233.842C343.082 246.447 331.237 251.724 331.12 251.771L331.484 252.625Z" fill="#444053"/>
<path d="M379.337 19.052H3.46031C2.57224 19.052 1.72053 19.4035 1.09257 20.0292C0.464603 20.6549 0.111816 21.5036 0.111816 22.3884V32.1093H382.686V22.3884C382.686 21.5036 382.333 20.6549 381.705 20.0292C381.077 19.4035 380.225 19.052 379.337 19.052V19.052Z" fill="#3F3D56"/>
<path d="M0.111816 32.1091V250.863C0.111816 252.647 0.82316 254.358 2.08936 255.62C3.35556 256.882 5.0729 257.59 6.86358 257.59H375.934C377.724 257.59 379.442 256.882 380.708 255.62C381.974 254.358 382.686 252.647 382.686 250.863V32.1091H0.111816Z" fill="white"/>
<path opacity="0.8" d="M6.17507 27.0383C7.03924 27.0383 7.73979 26.3403 7.73979 25.4792C7.73979 24.6182 7.03924 23.9202 6.17507 23.9202C5.3109 23.9202 4.61035 24.6182 4.61035 25.4792C4.61035 26.3403 5.3109 27.0383 6.17507 27.0383Z" fill="#FA5959"/>
<path opacity="0.8" d="M10.4781 27.0383C11.3422 27.0383 12.0428 26.3403 12.0428 25.4792C12.0428 24.6182 11.3422 23.9202 10.4781 23.9202C9.61388 23.9202 8.91333 24.6182 8.91333 25.4792C8.91333 26.3403 9.61388 27.0383 10.4781 27.0383Z" fill="#FED253"/>
<path opacity="0.8" d="M14.781 27.0383C15.6452 27.0383 16.3458 26.3403 16.3458 25.4792C16.3458 24.6182 15.6452 23.9202 14.781 23.9202C13.9169 23.9202 13.2163 24.6182 13.2163 25.4792C13.2163 26.3403 13.9169 27.0383 14.781 27.0383Z" fill="#8CCF4D"/>
<g opacity="0.3">
<path opacity="0.3" d="M368.407 45.3574H14.781V244.139H368.407V45.3574Z" stroke="#3F3D56" stroke-miterlimit="10"/>
<path opacity="0.3" d="M322.248 45.3574H60.9402V244.139H322.248V45.3574Z" stroke="#3F3D56" stroke-miterlimit="10"/>
<path opacity="0.3" d="M276.089 45.3574H107.099V244.139H276.089V45.3574Z" stroke="#3F3D56" stroke-miterlimit="10"/>
<path opacity="0.3" d="M229.93 45.3574H153.259V244.139H229.93V45.3574Z" stroke="#3F3D56" stroke-miterlimit="10"/>
<path opacity="0.3" d="M191.594 45.3574V244.139" stroke="#3F3D56" stroke-miterlimit="10"/>
<path opacity="0.3" d="M368.407 74.2002H14.781V215.296H368.407V74.2002Z" stroke="#3F3D56" stroke-miterlimit="10"/>
<path opacity="0.3" d="M368.407 102.653H14.781V186.843H368.407V102.653Z" stroke="#3F3D56" stroke-miterlimit="10"/>
<path opacity="0.3" d="M368.407 131.106H14.781V158.39H368.407V131.106Z" stroke="#3F3D56" stroke-miterlimit="10"/>
</g>
<path opacity="0.1" d="M97.9067 56.4658H70.1329V66.5998H97.9067V56.4658Z" fill="#3F3D56"/>
<path opacity="0.1" d="M47.4445 84.1394H26.712V94.2734H47.4445V84.1394Z" fill="#3F3D56"/>
<path opacity="0.1" d="M142.892 56.4658H115.119V66.5998H142.892V56.4658Z" fill="#3F3D56"/>
<path opacity="0.1" d="M185.14 56.4658H157.366V66.5998H185.14V56.4658Z" fill="#3F3D56"/>
<path opacity="0.1" d="M224.258 56.4658H196.484V66.5998H224.258V56.4658Z" fill="#3F3D56"/>
<path opacity="0.1" d="M268.07 56.4658H240.296V66.5998H268.07V56.4658Z" fill="#3F3D56"/>
<path opacity="0.1" d="M312.664 56.4658H284.891V66.5998H312.664V56.4658Z" fill="#3F3D56"/>
<path opacity="0.1" d="M359.997 56.4658H332.223V66.5998H359.997V56.4658Z" fill="#3F3D56"/>
<path d="M143.147 111.404H125.101V128.811H143.147V111.404Z" fill="url(#paint0_linear)"/>
<path d="M142.838 111.704H125.414V128.511H142.838V111.704Z" fill="#7CFCFF"/>
<path d="M180.324 107.631H162.279V125.038H180.324V107.631Z" fill="url(#paint1_linear)"/>
<path d="M180.015 107.931H162.592V124.738H180.015V107.931Z" fill="#FFFFA5"/>
<path d="M251.91 166.875H233.865V184.283H251.91V166.875Z" fill="url(#paint2_linear)"/>
<path d="M251.601 167.176H234.178V183.983H251.601V167.176Z" fill="#FFFFA5"/>
<path d="M92.9896 80.3821H74.9445V97.7892H92.9896V80.3821Z" fill="url(#paint3_linear)"/>
<path d="M92.6767 80.6821H75.2535V97.4889H92.6767V80.6821Z" fill="#FFFFA5"/>
<path d="M128.845 105.327H110.8V122.734H128.845V105.327Z" fill="url(#paint4_linear)"/>
<path d="M128.532 105.627H111.109V122.434H128.532V105.627Z" fill="#FF69B4"/>
<path d="M273.018 166.751H254.973V184.158H273.018V166.751Z" fill="url(#paint5_linear)"/>
<path d="M272.709 167.051H255.286V183.858H272.709V167.051Z" fill="#7CFCFF"/>
<path d="M304.704 80.6121H286.659V98.0191H304.704V80.6121Z" fill="url(#paint6_linear)"/>
<path d="M304.395 80.9121H286.972V97.719H304.395V80.9121Z" fill="#7CFCFF"/>
<path d="M302.748 135.959H284.703V153.366H302.748V135.959Z" fill="url(#paint7_linear)"/>
<path d="M302.439 136.259H285.016V153.066H302.439V136.259Z" fill="#7CFCFF"/>
<path d="M316.439 139.857H298.394V157.264H316.439V139.857Z" fill="url(#paint8_linear)"/>
<path d="M316.13 140.157H298.707V156.964H316.13V140.157Z" fill="#7CFCFF"/>
<path d="M258.717 160.674H240.672V178.081H258.717V160.674Z" fill="url(#paint9_linear)"/>
<path d="M258.404 160.974H240.981V177.781H258.404V160.974Z" fill="#FF69B4"/>
<path d="M260.673 108.056H242.628V125.463H260.673V108.056Z" fill="url(#paint10_linear)"/>
<path d="M260.36 108.356H242.937V125.163H260.36V108.356Z" fill="#FF69B4"/>
<path opacity="0.1" d="M47.4445 111.423H26.712V121.557H47.4445V111.423Z" fill="#3F3D56"/>
<path opacity="0.1" d="M47.4445 139.876H26.712V150.01H47.4445V139.876Z" fill="#3F3D56"/>
<path opacity="0.1" d="M47.4445 168.329H26.712V178.463H47.4445V168.329Z" fill="#3F3D56"/>
<path opacity="0.1" d="M47.4445 196.782H26.712V206.916H47.4445V196.782Z" fill="#3F3D56"/>
<path opacity="0.1" d="M47.4445 225.236H26.712V235.37H47.4445V225.236Z" fill="#3F3D56"/>
<path d="M89.6919 136.84C90.2709 136.474 90.0401 135.491 89.4455 135.152C88.8509 134.813 88.1116 134.926 87.4426 135.059C87.4711 134.889 87.4448 134.714 87.3675 134.56C87.2902 134.406 87.1659 134.28 87.0124 134.201V134.053C87.4035 133.663 87.2549 132.884 86.7776 132.541C86.3004 132.198 85.5572 132.182 84.9156 132.213C84.9612 131.826 84.9141 131.433 84.7781 131.067C84.6421 130.702 84.4212 130.373 84.1333 130.109C84.0211 129.988 83.8674 129.914 83.703 129.902C83.3118 129.902 83.2023 130.401 83.1749 130.771C83.1005 131.744 82.9394 132.708 82.6937 133.652L70.5359 153.92C69.1824 155.868 73.3876 150.022 72.0341 151.99C71.3485 153.062 70.5456 154.054 69.6401 154.949C68.827 155.672 67.9174 156.279 66.937 156.753C66.2823 156.772 65.6376 156.59 65.0906 156.231C64.4038 155.752 63.8034 155.16 63.3147 154.481C62.2549 153.139 61.2965 151.72 60.4473 150.236C60.1529 149.767 59.9314 149.256 59.7902 148.72C59.6102 147.878 59.7902 146.966 59.4577 146.175C59.3161 145.88 59.1402 145.603 58.9335 145.349L58.0924 144.238V144.187C57.9986 142.542 56.6568 141.272 55.405 140.188C54.341 139.26 53.187 138.294 51.7827 138.115C51.0316 138.017 50.261 138.161 49.51 138.068C48.8958 137.99 48.3129 137.76 47.7027 137.658C47.1154 137.579 46.5207 137.567 45.9307 137.623L45.6803 137.393C46.9786 136.847 48.0815 135.923 48.845 134.743C49.4239 133.811 49.7408 132.736 50.2767 131.777C50.9299 130.608 51.9001 129.641 52.6237 128.518C54.3723 125.856 54.6931 122.43 53.985 119.328C53.277 116.225 51.6184 113.407 49.6821 110.893C45.9268 106.052 39.6288 104.267 33.6985 105.202C33.3073 105.265 32.9161 105.339 32.5249 105.425C31.5272 105.634 30.5534 105.943 29.6185 106.348C28.3534 106.864 27.2557 107.718 26.446 108.816C26.2277 109.136 26.0429 109.479 25.8944 109.837C25.7852 110.111 25.6963 110.392 25.6284 110.679C25.4466 111.545 25.3978 112.433 25.4837 113.314C25.5072 113.614 25.5385 113.914 25.5737 114.214L25.6324 114.666C25.6715 114.966 25.7145 115.266 25.7575 115.566C25.8201 116.019 25.8788 116.471 25.9218 116.915C25.9563 117.23 25.9733 117.546 25.9727 117.862C25.9727 117.944 25.9727 118.022 25.9727 118.1C25.9589 118.335 25.9235 118.569 25.8671 118.798C25.8362 118.923 25.797 119.047 25.7497 119.168C25.6088 119.526 25.4235 119.865 25.1981 120.177C24.8934 120.601 24.5629 121.006 24.2085 121.39L23.8681 121.779C23.7547 121.908 23.6452 122.04 23.5317 122.169C23.0845 122.689 22.6753 123.24 22.3073 123.818C22.1278 124.109 21.9671 124.411 21.8262 124.722C21.7191 124.958 21.6264 125.2 21.5484 125.447C21.4489 125.778 21.3782 126.117 21.3372 126.46C21.3372 126.546 21.3372 126.632 21.3137 126.718C21.3137 126.885 21.3137 127.057 21.3137 127.228C21.3223 127.398 21.3406 127.567 21.3685 127.735C21.396 127.901 21.4352 128.065 21.4858 128.226C21.5349 128.389 21.5963 128.548 21.6697 128.702C21.6697 128.744 21.7088 128.787 21.7323 128.83L21.7949 128.959C21.8379 129.045 21.8809 129.126 21.9201 129.212C21.9791 129.336 22.0225 129.467 22.0491 129.602C22.0491 129.645 22.0491 129.692 22.0491 129.738C22.0491 129.785 22.0491 129.84 22.0491 129.887C21.9869 130.278 21.7805 130.632 21.4702 130.88C21.392 130.954 21.3137 131.021 21.2316 131.091L21.1064 131.192L20.8521 131.391L20.6096 131.586C20.3965 131.764 20.1989 131.959 20.0189 132.171C17.8163 132.053 15.6085 132.269 13.4706 132.81C12.711 133.056 11.9215 133.199 11.1235 133.235C10.932 133.252 10.7391 133.223 10.5618 133.149C10.3844 133.075 10.228 132.958 10.1064 132.81C9.9709 132.517 9.93385 132.189 10.0008 131.874C10.1063 130.569 9.89149 129.258 9.37492 128.055C9.25008 127.702 9.03419 127.389 8.74904 127.146C8.60375 127.029 8.4247 126.96 8.23769 126.95C8.05068 126.94 7.86538 126.99 7.7085 127.092C8.37014 129.224 8.27483 131.519 7.43858 133.589C7.0091 134.565 6.50563 135.507 5.93254 136.407C5.04065 137.924 4.53994 139.658 3.74585 141.229C4.63383 144.226 4.43433 147.426 4.91939 150.521C5.3536 153.401 6.36284 156.161 7.37599 158.893C8.15835 160.955 8.97201 163.106 10.6306 164.556C11.1652 165.094 11.8862 165.406 12.6452 165.43C13.207 165.36 13.7437 165.157 14.2099 164.837C14.6937 164.574 15.1398 164.248 15.536 163.867C15.6826 163.707 15.8136 163.533 15.9272 163.348C15.9758 163.609 16.0755 163.858 16.2206 164.081C17.175 162.031 18.2234 160.027 19.35 158.067C19.6856 157.889 20.0004 157.674 20.2888 157.428C20.2888 157.498 20.324 157.568 20.3436 157.638C20.2927 157.825 20.2458 158.028 20.195 158.203C20.1441 158.379 20.0854 158.566 20.0307 158.741C19.9759 158.916 19.9485 159.002 19.9055 159.131C19.8624 159.259 19.7999 159.443 19.7412 159.599C19.6825 159.754 19.616 159.938 19.5495 160.105C19.483 160.273 19.4595 160.347 19.4087 160.464C19.2874 160.76 19.1622 161.049 19.0175 161.337C19.1265 161.39 19.2389 161.435 19.3539 161.473L19.4282 161.497C19.5296 161.529 19.6328 161.555 19.7373 161.575H19.8507C19.9272 161.587 20.0042 161.594 20.0815 161.598H20.1676H20.4218C20.7018 161.586 20.9791 161.539 21.2472 161.458L21.3998 162.081C21.79 163.483 22.0416 164.919 22.1509 166.369C22.2252 168.006 21.9396 169.67 22.2565 171.28C22.4169 172.118 22.7415 172.921 22.8589 173.763C22.9345 174.556 22.9201 175.355 22.8159 176.144C22.6333 178.057 22.4508 179.97 22.2682 181.886C22.2514 182.589 22.0833 183.28 21.7753 183.912C21.5054 184.38 21.0673 184.914 21.3411 185.378C21.792 185.258 22.2508 185.171 22.7142 185.117C22.5459 185.725 22.3934 186.337 22.2486 186.953C22.1075 187.41 22.0701 187.894 22.1391 188.367C22.2369 188.812 22.5303 189.213 22.5616 189.665C22.632 190.367 22.143 190.987 21.8731 191.638C21.1846 193.298 21.9161 195.169 22.6555 196.814L24.8148 201.694L26.5868 205.697C27.111 206.866 27.6391 208.074 28.1515 209.275C30.4609 214.741 32.3467 220.375 33.7924 226.128C33.8406 226.389 33.9404 226.638 34.0857 226.861C34.383 227.251 34.9268 227.375 35.3688 227.617C36.6949 228.346 36.8475 230.521 35.6348 231.425C35.8813 234.356 33.6789 237.19 32.5445 239.903C29.9314 246.139 30.4047 253.178 29.5089 259.882L30.5221 259.294C30.6422 259.347 30.7531 259.42 30.8507 259.508C30.8272 259.633 30.7998 259.763 30.7685 259.898C30.6315 260.468 30.4128 261.015 30.1192 261.523C29.5285 262.533 28.6249 263.433 28.488 264.595C28.4058 265.296 28.621 265.998 28.617 266.703C28.617 266.769 28.617 266.832 28.617 266.898C28.5271 266.812 28.3902 266.82 28.1868 266.98C27.8683 267.313 27.6478 267.727 27.5491 268.176C27.3731 268.679 27.2323 269.19 27.0915 269.7L26.5673 271.501C26.2996 272.587 25.9451 273.649 25.5072 274.678C25.1327 275.367 24.8186 276.087 24.5683 276.829C24.4289 277.435 24.3749 278.057 24.408 278.677C24.3977 279.271 24.4835 279.864 24.6622 280.431C24.897 280.99 25.2461 281.493 25.6873 281.91C26.1285 282.327 26.652 282.647 27.2245 282.851C28.3703 283.253 29.5704 283.479 30.7842 283.522C31.0953 283.561 31.4108 283.552 31.7191 283.494C32.0492 283.4 32.3566 283.239 32.6227 283.023C34.2735 281.814 35.1263 279.593 35.2749 277.566C35.2332 277.148 35.1586 276.733 35.052 276.327C35.1537 274.109 34.829 271.879 34.9972 269.669C35.0324 269.923 35.0676 270.172 35.1067 270.422L35.4979 272.904C35.475 272.816 35.4291 272.735 35.3649 272.671C35.0754 273.59 35.0242 274.567 35.2163 275.512C35.4113 276.452 35.6861 277.374 36.0377 278.268L36.5697 279.749C36.6979 280.195 36.9133 280.613 37.2034 280.976C37.6689 281.487 38.377 281.678 39.0576 281.842C40.5207 282.268 42.027 282.529 43.5484 282.621C43.7518 282.645 43.9577 282.607 44.1391 282.512C44.2321 282.444 44.321 282.369 44.4051 282.29C44.5402 282.193 44.6843 282.11 44.8354 282.041C45.489 281.698 45.9829 281.115 46.2123 280.415C46.3224 280.067 46.3566 279.7 46.3128 279.337C46.2689 278.975 46.148 278.626 45.958 278.314C45.7802 278.051 45.5771 277.806 45.3517 277.582L42.676 274.756C42.267 274.272 41.8308 273.811 41.3695 273.376C41.3144 273.32 41.2466 273.278 41.1716 273.253C41.0967 273.229 41.017 273.223 40.9392 273.236C40.2116 271.427 40.3055 269.315 40.4307 267.331C40.4698 266.738 40.7945 265.51 40.9236 264.501C41.4396 264.327 41.9205 264.063 42.3435 263.721C42.7513 263.425 43.0408 262.994 43.1611 262.505C44.5107 255.638 46.6817 248.98 48.7315 242.288C48.9349 241.629 49.1227 240.967 49.33 240.308C49.4161 240.027 49.4943 239.743 49.5765 239.458C49.6586 239.174 49.7134 238.998 49.7799 238.768C49.8894 238.379 49.9989 237.989 50.1046 237.599C50.1358 237.494 50.1632 237.389 50.1945 237.283C50.1927 237.263 50.1927 237.242 50.1945 237.221C50.3236 236.742 50.4488 236.262 50.5857 235.783C50.6326 235.596 50.6835 235.416 50.7304 235.229C50.883 234.621 51.0356 234.005 51.1803 233.393C51.2041 233.309 51.2224 233.223 51.2351 233.136C51.2879 232.92 51.2729 232.693 51.192 232.485C51.153 232.405 51.1016 232.331 51.0395 232.267C50.9964 232.216 50.9495 232.166 50.9026 232.119C50.8556 232.072 50.8008 232.01 50.7539 231.951C50.6304 231.8 50.5374 231.627 50.4801 231.441C50.4801 231.254 50.4801 231.051 50.4801 230.88C50.4801 230.708 50.4566 230.49 50.4449 230.287C50.4868 230.024 50.5456 229.763 50.6209 229.508C50.6678 229.356 50.7187 229.204 50.7656 229.051C50.8126 228.899 50.883 228.662 50.9456 228.486C51.1796 228.22 51.3065 227.877 51.3016 227.524C51.5441 226.921 51.8114 226.33 52.1035 225.75C52.4637 225.163 52.7068 224.512 52.8193 223.832C52.8177 223.219 52.7415 222.608 52.5925 222.012C52.2013 219.479 53.3748 217.012 54.2393 214.607C54.8807 212.833 55.3675 211.007 55.6945 209.15C55.9488 207.727 56.1248 206.234 56.8876 205.003C57.1393 204.657 57.3543 204.286 57.5291 203.896C57.6476 203.488 57.7055 203.065 57.7013 202.641C57.7975 200.92 58.2154 199.232 58.9335 197.663C59.0926 197.359 59.2009 197.032 59.2542 196.693C59.2563 196.671 59.2563 196.649 59.2542 196.627V196.533L59.4537 196.502C59.7941 194.354 60.1383 191.961 59.9036 189.798C59.5983 187.292 58.3736 184.988 56.4651 183.328H56.5042C57.1771 182.989 57.4783 182.158 57.49 181.426C57.4916 180.87 57.368 180.322 57.1283 179.821C56.8887 179.319 56.539 178.878 56.1052 178.53C55.9113 178.409 55.75 178.243 55.6358 178.046C55.5709 177.844 55.5509 177.63 55.5772 177.419C55.5803 176.782 55.3934 176.159 55.0403 175.629C54.6871 175.099 54.1836 174.685 53.5939 174.441C53.4714 174.407 53.3597 174.343 53.2692 174.254C53.1687 174.082 53.1379 173.878 53.1831 173.685C53.2194 173.052 53.0815 172.421 52.7844 171.861C52.4873 171.3 52.0422 170.831 51.4971 170.504C51.6536 169.67 51.8101 168.797 51.5715 167.979C51.3329 167.16 50.5622 166.42 49.7173 166.536C50.4058 164.666 49.4278 162.584 49.686 160.608C49.7994 159.758 50.1398 158.944 50.1828 158.09C50.2219 157.311 50.0302 156.477 50.4097 155.798C50.7891 155.12 51.6849 154.59 51.4541 153.849C51.3563 153.534 51.0629 153.316 50.926 153.008C50.7891 152.7 51.3368 152.228 51.6184 152.4C51.7514 152.298 51.8844 152.193 52.0096 152.084C52.0504 152.48 52.129 152.872 52.2443 153.253C52.436 153.892 52.7294 154.493 52.9289 155.128C53.234 156.098 53.32 157.151 53.8129 158.04C54.5953 159.462 56.25 160.168 57.3688 161.349C58.0259 162.039 58.4993 162.908 59.176 163.563C59.69 164.041 60.2539 164.463 60.8581 164.821L64.4726 167.16C64.8475 167.431 65.2653 167.638 65.7087 167.772C65.99 167.825 66.2793 167.821 66.5589 167.76C66.8385 167.698 67.1026 167.58 67.335 167.413C67.5674 167.247 67.7634 167.035 67.9108 166.79C68.0583 166.546 68.1542 166.274 68.1927 165.991C67.8603 165.874 67.5574 165.686 67.3047 165.441C67.3556 165.441 67.4064 165.441 67.4573 165.418C68.3159 165.194 69.1102 164.774 69.777 164.19C72.3509 162.148 74.2012 159.361 76.0085 156.621C77.9018 153.748 87.0124 146.148 87.0124 146.148V143.068C88.1717 142.399 89.2 141.526 90.0479 140.492C90.505 139.941 90.7724 139.258 90.8107 138.543C90.8282 138.178 90.7294 137.817 90.5285 137.511C90.3276 137.205 90.0348 136.97 89.6919 136.84V136.84ZM13.9204 144.226C13.7457 145.346 13.5306 146.458 13.275 147.563C12.9935 148.84 12.6329 150.099 12.1953 151.332L12.0545 151.721C11.9254 151.48 11.7963 151.242 11.6633 150.996C11.3699 150.384 11.1313 149.749 10.881 149.114L9.37101 145.06C9.17542 144.534 8.97983 143.926 9.27322 143.443C9.48827 143.147 9.78832 142.922 10.1338 142.8C11.1955 142.314 12.3044 141.94 13.4432 141.681C13.8032 141.609 14.1586 141.515 14.5072 141.4C14.2265 142.323 14.0301 143.268 13.9204 144.226V144.226ZM15.5908 139.159C15.5404 139.069 15.514 138.968 15.514 138.865C15.514 138.762 15.5404 138.661 15.5908 138.571C15.7038 138.457 15.8363 138.365 15.9819 138.298L16.0954 138.22C15.9389 138.543 15.7629 138.855 15.5908 139.171V139.159ZM18.7202 134.751C18.2761 135.118 17.8723 135.531 17.5154 135.982C17.1324 136.487 16.7872 137.018 16.4827 137.573C16.5288 137.357 16.5129 137.133 16.4367 136.926C16.3606 136.719 16.2274 136.538 16.0524 136.403C15.9138 136.328 15.7828 136.239 15.6612 136.138C15.5305 135.965 15.4743 135.746 15.5051 135.532C15.536 135.317 15.6512 135.123 15.8255 134.992C16.1854 134.746 16.6062 134.604 17.042 134.579L18.8454 134.314C18.7906 134.466 18.7554 134.614 18.7163 134.763L18.7202 134.751ZM35.6035 265.187C35.6353 264.648 35.5998 264.107 35.4979 263.577C35.7209 263.577 35.9438 263.577 36.1629 263.577C35.9791 264.096 35.7913 264.645 35.6035 265.187Z" fill="url(#paint11_linear)"/>
<path d="M33.7649 106.372C30.6354 106.875 27.1539 108.075 25.9413 110.998C25.0377 113.208 25.7379 115.695 25.9687 118.069C26.0562 118.695 26.0337 119.332 25.9022 119.951C25.644 120.953 24.932 121.764 24.2436 122.539C23.2871 123.524 22.4841 124.646 21.8613 125.868C21.298 127.115 21.118 128.596 21.7009 129.844C21.8992 130.164 22.0321 130.52 22.0921 130.892C22.1312 131.703 21.2784 132.217 20.6525 132.736C18.3055 134.685 18.4033 138.193 18.3837 141.244C18.3476 147.467 16.9612 153.609 14.3193 159.248C15.3094 159.747 16.4277 159.938 17.5281 159.795C18.6286 159.652 19.6602 159.181 20.4882 158.445C20.1629 159.831 19.6936 161.179 19.0878 162.467C21.075 163.426 23.4729 161.852 24.4705 159.887C25.468 157.923 25.5853 155.639 26.2933 153.553C27.0014 151.468 28.2492 149.656 28.8008 147.555C28.9768 146.861 29.0864 146.12 29.5128 145.544C29.872 145.126 30.2943 144.767 30.7645 144.479C32.8279 142.996 34.3746 140.907 35.1888 138.504C37.6219 139.038 40.1059 139.576 42.586 139.35C45.0661 139.124 47.6009 138.005 48.9114 135.893C49.4903 134.961 49.8032 133.889 50.3392 132.931C50.9963 131.761 51.9626 130.795 52.6862 129.676C54.4309 127.014 54.7517 123.596 54.0436 120.493C53.3356 117.391 51.6966 114.584 49.7407 112.07C45.9932 107.222 39.6952 105.425 33.7649 106.372Z" fill="#303D5C"/>
<path d="M14.0144 145.357C13.8383 146.471 13.6232 147.586 13.3728 148.689C13.089 149.964 12.7284 151.222 12.2932 152.454C12.0372 152.994 11.9203 153.589 11.9528 154.185C12.03 154.55 12.1718 154.898 12.3714 155.214C13.7992 157.743 15.7316 160.187 15.892 163.087C15.9311 163.808 15.892 164.592 16.2832 165.188C17.3863 162.821 18.6042 160.513 19.9368 158.266C21.3294 155.927 22.8785 153.534 23.2775 150.829C23.4366 149.559 23.4195 148.274 23.2266 147.009C23.0428 145.586 22.722 144.129 21.8536 142.991C20.9069 141.759 18.333 139.9 16.6392 140.286C14.6715 140.734 14.2647 143.77 14.0144 145.357Z" fill="#AB00EA"/>
<path d="M64.4334 158.991C66.3033 158.231 68.2122 157.432 69.6948 156.06C70.6003 155.165 71.4032 154.173 72.0888 153.101L76.4896 146.775C77.5301 145.271 78.6059 143.692 78.8366 141.88C81.4139 139.169 82.9666 135.65 83.2296 131.925C83.2609 131.555 83.3861 131.068 83.7577 131.056C83.9222 131.068 84.0759 131.142 84.188 131.262C84.4756 131.526 84.6964 131.854 84.8323 132.219C84.9683 132.584 85.0156 132.976 84.9704 133.363C85.6119 133.332 86.3082 133.317 86.8324 133.691C87.3565 134.065 87.4974 134.993 86.9341 135.3C87.1226 135.358 87.2837 135.481 87.3867 135.649C87.4898 135.816 87.5278 136.015 87.4935 136.209C88.1663 136.076 88.9056 135.967 89.5002 136.302C90.0948 136.637 90.3217 137.62 89.7466 137.986C90.0819 138.115 90.369 138.344 90.5685 138.642C90.7681 138.94 90.8704 139.292 90.8615 139.65C90.8257 140.365 90.558 141.049 90.0987 141.599C88.4088 143.86 85.428 144.772 83.4682 146.806C82.8243 147.518 82.2468 148.286 81.7431 149.102L76.0671 157.708C74.2638 160.437 72.4135 163.231 69.8395 165.266C69.1728 165.85 68.3784 166.27 67.5198 166.494C67.0898 166.602 66.639 166.596 66.2117 166.478C65.7844 166.36 65.3953 166.133 65.0828 165.819C64.5156 165.176 64.4295 164.26 64.3747 163.399C64.2809 161.949 64.5312 160.452 64.4334 158.991Z" fill="#EE8E9E"/>
<path d="M45.426 278.517C45.6523 278.74 45.8555 278.986 46.0323 279.25C46.2222 279.561 46.3431 279.909 46.3869 280.271C46.4308 280.633 46.3966 280.999 46.2866 281.347C46.0599 282.046 45.5668 282.628 44.9136 282.968C44.7608 283.037 44.6154 283.12 44.4794 283.218C44.3962 283.299 44.3073 283.375 44.2134 283.444C44.0307 283.535 43.826 283.573 43.6227 283.553C42.103 283.457 40.5984 283.195 39.1358 282.773C38.463 282.606 37.7511 282.415 37.2817 281.908C36.9915 281.544 36.7762 281.127 36.648 280.68L36.1159 279.203C35.7666 278.31 35.4932 277.39 35.2984 276.451C35.1043 275.508 35.1554 274.532 35.447 273.614C35.5789 273.778 35.6482 273.984 35.6426 274.195C35.7992 275.189 36.1907 276.132 36.7849 276.946C36.909 277.15 37.0589 277.338 37.2308 277.504C37.6197 277.801 38.0793 277.993 38.5647 278.061C39.4991 278.263 40.4493 278.385 41.4047 278.424C41.5369 278.441 41.6716 278.425 41.7959 278.377C41.9493 278.292 42.0651 278.153 42.1205 277.987C42.2574 277.609 42.2574 277.196 42.1205 276.818C41.8624 276.097 41.1543 275.625 40.8179 274.939C40.5637 274.432 40.9118 273.875 41.4282 274.304C41.8917 274.738 42.3293 275.198 42.7386 275.683L45.426 278.517Z" fill="#303D5C"/>
<path d="M40.5089 268.278C40.3563 270.66 40.2507 273.232 41.5572 275.232C42.0306 275.949 42.6604 276.553 43.1963 277.227C43.5036 277.564 43.7073 277.982 43.7831 278.432C43.8574 279.305 43.0359 280.053 42.1714 280.217C41.3069 280.38 40.4228 280.108 39.5857 279.827C38.7936 279.631 38.0479 279.281 37.3912 278.798C36.2528 277.839 35.9516 276.241 35.7247 274.776L35.1927 271.369C34.7897 269.647 34.96 267.841 35.6778 266.224L36.554 263.667C36.6114 263.418 36.7488 263.195 36.9452 263.032C37.1491 262.92 37.3835 262.876 37.6141 262.907C38.4513 262.95 40.5676 263.254 40.9744 264.139C41.3186 264.907 40.5676 267.362 40.5089 268.278Z" fill="#EE8E9E"/>
<path opacity="0.05" d="M40.5089 268.278C40.3563 270.66 40.2507 273.232 41.5572 275.232C42.0306 275.949 42.6604 276.553 43.1963 277.227C43.5036 277.564 43.7073 277.982 43.7831 278.432C43.8574 279.305 43.0359 280.053 42.1714 280.217C41.3069 280.38 40.4228 280.108 39.5857 279.827C38.7936 279.631 38.0479 279.281 37.3912 278.798C36.2528 277.839 35.9516 276.241 35.7247 274.776L35.1927 271.369C34.7897 269.647 34.96 267.841 35.6778 266.224L36.554 263.667C36.6114 263.418 36.7488 263.195 36.9452 263.032C37.1491 262.92 37.3835 262.876 37.6141 262.907C38.4513 262.95 40.5676 263.254 40.9744 264.139C41.3186 264.907 40.5676 267.362 40.5089 268.278Z" fill="black"/>
<path d="M59.3128 197.687C59.3145 197.709 59.3145 197.731 59.3128 197.753C59.2631 198.09 59.1545 198.416 58.9921 198.716C58.274 200.28 57.8548 201.964 57.7559 203.682C57.7602 204.106 57.7022 204.529 57.5838 204.937C57.4083 205.325 57.1934 205.695 56.9423 206.04C56.1795 207.275 56.0034 208.768 55.7492 210.183C55.4214 212.032 54.9345 213.85 54.294 215.616C53.4217 218.025 52.2481 220.488 52.6471 223.022C52.7961 223.617 52.8723 224.228 52.874 224.842C52.7625 225.52 52.5194 226.17 52.1582 226.756C51.8661 227.333 51.6053 227.924 51.3758 228.529C51.1215 229.176 50.8946 229.839 50.6951 230.509C50.4604 231.324 50.304 232.291 50.8438 232.945C51.0115 233.106 51.1599 233.285 51.2858 233.479C51.3875 233.778 51.3875 234.101 51.2858 234.399C50.9755 235.698 50.6443 236.998 50.2922 238.297C50.0184 239.31 49.7289 240.316 49.4316 241.321C47.2332 248.676 44.7375 255.957 43.2666 263.492C43.0554 264.575 41.6589 265.351 40.5792 265.589C40.0355 265.704 39.4721 265.69 38.9349 265.547C38.3978 265.404 37.9023 265.137 37.4889 264.766C37.4146 264.7 37.3442 264.626 37.2777 264.556C36.1433 263.34 35.9751 261.473 36.0611 259.789C36.4523 252.036 40.3641 244.939 42.2261 237.404C42.8995 234.68 43.3057 231.897 43.4388 229.094C43.873 219.74 44.049 209.848 41.3929 200.856C40.8413 198.985 40.1881 196.872 41.1817 195.196C41.8075 194.136 42.9693 193.509 44.1194 193.056C46.4649 192.146 48.9693 191.711 51.4857 191.778C54.002 191.845 56.4796 192.412 58.773 193.446C58.7768 193.634 58.769 193.821 58.7495 194.007C58.6499 194.879 58.7516 195.761 59.0468 196.588C59.1987 196.936 59.2887 197.308 59.3128 197.687Z" fill="#303D5C"/>
<path d="M27.1501 270.675L26.6533 272.476C26.3887 273.559 26.0355 274.619 25.5972 275.644C25.2227 276.333 24.9085 277.053 24.6583 277.796C24.5189 278.401 24.4649 279.023 24.4979 279.643C24.4877 280.237 24.5735 280.828 24.7522 281.393C24.9864 281.951 25.3349 282.455 25.7754 282.871C26.216 283.287 26.7388 283.607 27.3105 283.81C28.4561 284.212 29.6565 284.436 30.8703 284.477C31.1811 284.52 31.4969 284.512 31.8052 284.453C32.1353 284.358 32.4427 284.198 32.7088 283.982C34.3596 282.777 35.2084 280.555 35.3571 278.525C35.3144 278.051 35.2213 277.583 35.0794 277.129C34.9503 276.958 33.7024 277.659 34.2383 278.248C35.0207 279.113 32.7166 278.665 31.5431 278.591C31.0276 278.547 30.5163 278.463 30.0136 278.342L28.1125 277.952C27.4905 277.819 26.7746 277.605 26.5477 277.012C26.3208 276.42 26.8059 275.711 27.1814 275.134C28.175 273.602 28.4332 271.727 28.664 269.919C28.707 269.564 29.153 267.26 28.2337 267.97C27.9182 268.305 27.698 268.718 27.5961 269.166C27.4279 269.654 27.2871 270.164 27.1501 270.675Z" fill="#303D5C"/>
<path opacity="0.05" d="M50.8243 232.949C50.2845 232.294 50.4332 231.328 50.6796 230.513C50.7657 230.209 50.8635 229.909 50.9652 229.609L43.5015 227.091C43.4741 227.761 43.4428 228.424 43.4115 229.087C43.2814 231.891 42.8765 234.675 42.2027 237.4C40.3368 244.931 36.4211 252.028 36.0377 259.777C35.9478 261.562 36.1395 263.558 37.4656 264.758C37.8781 265.129 38.3728 265.397 38.9092 265.541C39.4457 265.684 40.0086 265.699 40.552 265.585C41.6355 265.347 43.0281 264.567 43.2433 263.484C44.7219 255.95 47.2059 248.673 49.4083 241.31C50.0941 239.026 50.7122 236.724 51.2625 234.403C51.3641 234.106 51.3641 233.784 51.2625 233.487C51.1399 233.29 50.9927 233.109 50.8243 232.949Z" fill="black"/>
<path d="M30.2013 262.505C29.6106 263.519 28.7109 264.415 28.574 265.577C28.4918 266.275 28.707 266.976 28.7031 267.682C28.6742 268.265 28.5703 268.843 28.394 269.4C27.6665 272.017 26.8293 274.597 25.8827 277.141C25.7271 277.469 25.6584 277.832 25.6832 278.194C25.7771 278.79 26.3599 279.184 26.9154 279.421C28.6953 280.178 30.6981 280.127 32.6305 280.049C33.1925 280.072 33.7496 279.937 34.2383 279.659C34.9307 279.188 35.1028 278.256 35.1458 277.422C35.2788 275.005 34.8681 272.577 35.1458 270.176C35.2436 269.299 35.4275 268.438 35.5644 267.569C35.7561 266.36 35.8538 265.09 35.4548 263.932C35.1245 263.101 34.6622 262.329 34.0857 261.644C33.5771 260.903 32.9336 260.263 32.1885 259.758C31.9616 259.625 31.3162 259.212 31.0854 259.469C30.968 259.602 31.0189 259.956 31.0032 260.12C30.9729 260.372 30.9285 260.622 30.8702 260.868C30.7272 261.443 30.502 261.995 30.2013 262.505V262.505Z" fill="#EE8E9E"/>
<path opacity="0.05" d="M44.542 200.704C44.1939 201.175 44.2643 201.83 44.4051 202.399C44.6516 203.428 45.0662 204.414 45.4026 205.416C45.9532 207.215 46.3819 209.048 46.6857 210.904C46.9986 212.58 47.6637 214.447 47.3937 216.135C49.4341 220.004 50.7754 224.201 51.3564 228.533C51.5089 229.644 49.0328 231.078 49.0797 232.197C49.1736 234.426 50.9574 234.606 49.643 236.383C49.5765 236.473 50.1359 238.464 50.0616 238.55C49.5257 239.193 48.845 239.719 48.27 240.308C47.5283 241.145 46.8937 242.071 46.3806 243.064C42.9773 249.191 38.0563 256.137 39.5741 262.977C39.605 263.223 39.5593 263.473 39.4432 263.693C39.3271 263.912 39.1461 264.091 38.9247 264.205C38.4754 264.42 37.9837 264.533 37.4852 264.536H37.2505C36.116 263.32 35.9478 261.453 36.0339 259.769C36.4251 252.017 40.3369 244.919 42.1989 237.385C42.8723 234.66 43.2785 231.877 43.4115 229.075C43.8457 219.72 44.0218 209.828 41.3657 200.836C40.8141 198.965 40.1608 196.853 41.1544 195.177C41.7803 194.117 42.9421 193.489 44.0922 193.037C46.4376 192.126 48.9421 191.691 51.4585 191.758C53.9748 191.825 56.4524 192.393 58.7458 193.427C58.7496 193.614 58.7418 193.802 58.7223 193.988C58.6227 194.859 58.7244 195.742 59.0196 196.568C59.1836 196.922 59.2829 197.302 59.313 197.691C59.313 197.691 59.446 196.182 59.4421 196.206C56.4104 196.638 53.2106 198.614 50.1516 199.063C48.5656 199.231 47.0032 199.574 45.4926 200.084C45.1246 200.199 44.7956 200.414 44.542 200.704V200.704Z" fill="black"/>
<path d="M23.4223 184.107C23.0128 185.407 22.6516 186.719 22.3387 188.044C22.1994 188.502 22.1621 188.985 22.2292 189.459C22.327 189.903 22.6203 190.301 22.6516 190.753C22.722 191.454 22.2331 192.074 21.9632 192.725C21.2747 194.382 22.0101 196.252 22.7455 197.893L24.9048 202.766L26.6808 206.765C27.2089 207.953 27.7331 209.142 28.2455 210.339C30.5535 215.798 32.438 221.426 33.8824 227.173C33.931 227.433 34.0293 227.682 34.1719 227.906C34.4731 228.295 35.0168 228.42 35.4549 228.662C36.7849 229.387 36.9375 231.562 35.7209 232.466C35.9713 235.393 33.765 238.219 32.6345 240.932C30.0215 247.168 30.4948 254.184 29.599 260.888L30.6121 260.295C31.5862 260.74 31.551 262.116 32.0751 263.047C32.8575 264.446 34.7821 264.641 36.3781 264.536C36.8755 264.534 37.366 264.421 37.8138 264.205C38.0355 264.091 38.2168 263.913 38.333 263.693C38.4492 263.473 38.4946 263.223 38.4631 262.977C36.9492 256.137 41.8664 249.191 45.2735 243.064C45.7853 242.071 46.4186 241.145 47.159 240.308C47.738 239.7 48.4147 239.189 48.9546 238.55C50.4567 236.753 50.6484 234.22 50.5466 231.881C50.3081 226.382 48.852 221.003 46.2828 216.131C46.5566 214.447 45.8916 212.58 45.5787 210.904C45.2737 209.048 44.8411 207.216 44.2839 205.42C43.9474 204.41 43.5367 203.428 43.2864 202.399C43.1494 201.83 43.0751 201.175 43.4233 200.704C43.6805 200.413 44.0135 200.198 44.3856 200.084C45.8961 199.574 47.4586 199.231 49.0445 199.063L59.5399 197.562C59.8763 195.414 60.2205 193.021 59.9858 190.862C59.7336 188.861 58.8975 186.978 57.5812 185.446C56.2648 183.914 54.5262 182.801 52.5808 182.244C52.1231 182.123 51.5872 182.045 51.2117 182.334C41.9504 180.522 32.3759 181.133 23.4223 184.107V184.107Z" fill="#303D5C"/>
<path d="M32.9395 127.626C33.0925 128.647 32.933 129.69 32.4818 130.619C32.1771 131.127 31.7789 131.573 31.3083 131.933C30.2935 132.746 29.1136 133.33 27.8503 133.644C27.107 133.831 26.2856 133.956 25.7809 134.544C25.0455 135.429 25.5384 136.77 26.1721 137.737C27.2596 139.42 28.7695 140.944 30.7059 141.471C32.2706 141.892 33.9018 141.634 35.4822 141.907C36.6283 142.106 37.708 142.578 38.8385 142.846C40.4472 143.213 42.1223 143.174 43.7119 142.732C45.3015 142.29 46.7552 141.46 47.9413 140.317C46.2592 139.031 44.5145 137.663 43.6383 135.737C43.0216 134.359 42.9054 132.81 43.3097 131.356C43.7009 129.93 44.6201 128.542 44.3385 127.069C44.0568 125.595 42.6173 124.609 41.2091 124.118C39.9161 123.727 38.5874 123.464 37.2425 123.335C36.5032 123.233 31.809 122.2 31.5156 122.711C31.3513 122.999 32.3254 124.707 32.4466 125.085C32.7326 125.904 32.8986 126.76 32.9395 127.626V127.626Z" fill="#EE8E9E"/>
<path d="M38.8581 131.04C44.1166 131.04 48.3794 126.793 48.3794 121.553C48.3794 116.314 44.1166 112.066 38.8581 112.066C33.5996 112.066 29.3368 116.314 29.3368 121.553C29.3368 126.793 33.5996 131.04 38.8581 131.04Z" fill="#EE8E9E"/>
<path d="M33.8276 137.234L40.286 138.317C41.8734 138.639 43.4893 138.801 45.1092 138.801C45.9937 138.713 46.8847 138.713 47.7692 138.801C48.3795 138.902 48.9623 139.132 49.5726 139.21C50.3276 139.303 51.0943 139.159 51.8492 139.257C53.2497 139.436 54.4036 140.403 55.4676 141.326C56.7155 142.41 58.0573 143.665 58.1551 145.321C58.1726 145.509 58.1458 145.699 58.0768 145.875C57.9542 146.074 57.7901 146.244 57.5957 146.374C56.4221 147.344 55.7454 148.79 54.9004 150.069C54.0305 151.388 52.9465 152.554 51.6928 153.518C51.4111 153.339 50.8752 153.811 50.9965 154.122C51.1177 154.434 51.4268 154.649 51.5285 154.964C51.7593 155.693 50.8556 156.231 50.4801 156.913C50.1046 157.595 50.2963 158.425 50.2571 159.201C50.2102 160.055 49.866 160.869 49.7603 161.715C49.4983 163.691 50.4801 165.773 49.7877 167.64C50.6366 167.534 51.4033 168.263 51.6419 169.078C51.8805 169.892 51.728 170.769 51.5676 171.604C52.1127 171.929 52.5583 172.396 52.8562 172.955C53.154 173.515 53.2928 174.144 53.2575 174.776C53.2242 174.851 53.2082 174.932 53.2106 175.014C53.213 175.095 53.2337 175.175 53.2712 175.248C53.3088 175.32 53.3622 175.384 53.4275 175.433C53.4928 175.482 53.5684 175.516 53.6487 175.532C54.2375 175.777 54.7403 176.19 55.0933 176.719C55.4464 177.249 55.6338 177.871 55.6319 178.506C55.6058 178.719 55.6258 178.934 55.6906 179.138C55.8046 179.333 55.9643 179.497 56.1561 179.617C56.59 179.965 56.9398 180.405 57.1795 180.906C57.4192 181.407 57.5428 181.955 57.5409 182.509C57.5409 183.262 57.228 184.068 56.559 184.407C55.1899 185.101 53.723 185.37 52.2209 185.694C50.8368 186.02 49.4354 186.268 48.0235 186.438C46.7225 186.544 45.4169 186.585 44.1117 186.559L35.4745 186.524C33.0452 186.524 30.616 186.524 28.1946 186.341C25.9336 186.189 23.6217 185.908 21.4311 186.501C21.1573 186.037 21.5954 185.503 21.8653 185.039C22.1747 184.407 22.3429 183.715 22.3582 183.012L22.9059 177.279C23.0101 176.49 23.0245 175.693 22.9489 174.901C22.8315 174.055 22.5108 173.256 22.3465 172.418C22.0335 170.812 22.3191 169.152 22.2448 167.515C22.1331 166.065 21.8802 164.629 21.4898 163.227L19.7764 156.212C19.5026 155.085 19.3579 153.776 18.9354 152.704C17.6184 149.326 16.2376 145.984 14.7928 142.679C14.7405 142.534 14.7204 142.379 14.7339 142.226C14.7475 142.072 14.7942 141.924 14.871 141.79L16.2988 139.241C16.6808 138.517 17.1176 137.822 17.6054 137.164C18.8113 135.644 20.5189 134.6 22.4247 134.217C24.3331 133.845 26.3117 134.137 28.0303 135.043C28.6953 135.398 29.3134 135.823 29.9862 136.174C31.1402 136.719 32.5484 137.319 33.8276 137.234Z" fill="#AB00EA"/>
<path d="M56.743 143.482L58.9923 146.471C59.199 146.725 59.3749 147.003 59.5164 147.298C59.8528 148.077 59.669 148.997 59.8489 149.835C59.9891 150.371 60.2121 150.883 60.51 151.351C61.3556 152.833 62.3115 154.249 63.3696 155.588C63.8584 156.268 64.4604 156.86 65.1494 157.338C65.4946 157.576 65.887 157.737 66.3 157.81C66.7131 157.883 67.1371 157.867 67.5434 157.763C67.2036 157.895 66.9248 158.147 66.7611 158.472C65.9044 160.164 65.8418 162.167 66.2056 164.023C66.308 164.659 66.5197 165.274 66.8315 165.839C67.1438 166.409 67.6522 166.848 68.2632 167.074C68.2248 167.357 68.1288 167.629 67.9813 167.873C67.8338 168.118 67.6378 168.33 67.4053 168.496C67.1728 168.662 66.9087 168.78 66.6291 168.841C66.3495 168.902 66.0603 168.906 65.7792 168.852C65.3364 168.72 64.9196 168.513 64.547 168.24L60.9325 165.901C60.3292 165.541 59.7654 165.119 59.2504 164.642C58.5737 163.972 58.1043 163.122 57.4471 162.432C56.3283 161.263 54.6854 160.546 53.8952 159.127C53.3984 158.238 53.3123 157.178 53.0072 156.219C52.8077 155.584 52.5143 154.984 52.3226 154.345C51.728 152.372 52.1583 150.209 53.062 148.358C53.9656 146.506 55.4051 145.056 56.743 143.482Z" fill="#AB00EA"/>
<path d="M48.2659 116.143C47.3847 114.782 46.2477 113.602 44.9174 112.671C43.1375 111.349 41.0917 110.25 38.8737 110.125C37.9463 110.078 37.0196 110.228 36.155 110.566C36.112 107.888 35.447 106.103 33.7649 106.372C30.6354 106.875 27.1539 108.075 25.9413 110.999C25.0377 113.209 25.7379 115.695 25.9687 118.069C26.0562 118.696 26.0337 119.333 25.9022 119.951C25.644 120.953 24.932 121.764 24.2436 122.54C23.2871 123.524 22.4841 124.646 21.8613 125.868C21.298 127.115 21.118 128.597 21.7009 129.844C21.8992 130.164 22.0321 130.521 22.0921 130.892C22.1312 131.703 21.2784 132.218 20.6525 132.736C18.3055 134.685 18.4033 138.193 18.3837 141.245C18.3476 147.468 16.9611 153.609 14.3193 159.248C15.3094 159.748 16.4277 159.938 17.5281 159.795C18.6286 159.652 19.6602 159.181 20.4882 158.445C20.1629 159.831 19.6936 161.179 19.0878 162.467C21.075 163.426 23.4729 161.852 24.4705 159.887C25.468 157.923 25.5853 155.639 26.2933 153.553C27.0014 151.468 28.2492 149.656 28.8008 147.555C28.9768 146.861 29.0864 146.121 29.5128 145.544C29.872 145.126 30.2943 144.767 30.7645 144.48C32.8143 143.014 29.7944 131.91 30.5963 129.524C31.7699 129.785 33.98 124.067 35.2279 118.221C36.0981 118.52 37.0265 118.612 37.9388 118.49C38.2559 118.421 38.5814 118.399 38.905 118.424C39.2054 118.485 39.4919 118.601 39.7499 118.767C40.6733 119.331 41.6384 119.825 42.6368 120.244C44.7023 121.023 46.9711 120.91 49.1734 120.801C49.4718 119.19 49.1476 117.526 48.2659 116.143V116.143Z" fill="#303D5C"/>
<g opacity="0.1">
<path opacity="0.1" d="M15.4381 159.248C18.088 153.616 19.4813 147.48 19.522 141.26C19.5416 138.22 19.4399 134.688 21.7909 132.751C22.4168 132.233 23.2695 131.718 23.2304 130.908C23.1689 130.536 23.0361 130.18 22.8392 129.859C22.2564 128.62 22.4481 127.131 22.9957 125.884C23.6187 124.661 24.4231 123.539 25.3819 122.555C26.0665 121.775 26.7823 120.969 27.0366 119.967C27.1677 119.348 27.1915 118.711 27.107 118.084C26.8723 115.711 26.176 113.224 27.0796 111.014C28.2532 108.184 31.5352 106.972 34.5864 106.442C34.321 106.358 34.0391 106.339 33.7649 106.387C30.6354 106.89 27.1539 108.091 25.9413 111.014C25.0377 113.224 25.7379 115.711 25.9687 118.084C26.0562 118.711 26.0337 119.348 25.9022 119.967C25.644 120.969 24.932 121.779 24.2436 122.555C23.2871 123.54 22.4841 124.662 21.8613 125.884C21.298 127.131 21.118 128.612 21.7009 129.859C21.8992 130.18 22.0321 130.536 22.0921 130.908C22.1312 131.718 21.2784 132.233 20.6525 132.751C18.3055 134.7 18.4033 138.208 18.3837 141.26C18.3454 147.478 16.9589 153.614 14.3193 159.248C15.25 159.727 16.3014 159.924 17.3432 159.813C16.6774 159.749 16.0304 159.557 15.4381 159.248V159.248Z" fill="black"/>
<path opacity="0.1" d="M20.2067 162.452C20.8084 161.162 21.2738 159.814 21.5954 158.429C21.1937 158.795 20.737 159.096 20.2419 159.322C19.9367 160.391 19.5442 161.434 19.0684 162.44C19.6405 162.711 20.2847 162.793 20.9069 162.674C20.665 162.629 20.4298 162.555 20.2067 162.452V162.452Z" fill="black"/>
<path opacity="0.1" d="M37.2738 110.566C37.8557 110.34 38.4668 110.198 39.0889 110.145H38.8737C38.3349 110.117 37.7946 110.158 37.266 110.266C37.2699 110.351 37.2738 110.456 37.2738 110.566Z" fill="black"/>
<path opacity="0.1" d="M43.7557 120.232C42.7585 119.813 41.7947 119.319 40.8727 118.755C40.6133 118.589 40.3255 118.473 40.0238 118.412C39.7281 118.385 39.43 118.404 39.1398 118.466C39.3518 118.543 39.5561 118.64 39.75 118.755C40.6734 119.319 41.6384 119.813 42.6369 120.232C44.1917 120.743 45.8299 120.955 47.4641 120.856C46.2017 120.855 44.9483 120.644 43.7557 120.232V120.232Z" fill="black"/>
<path opacity="0.1" d="M36.3468 118.209C36.3468 118.295 36.3116 118.38 36.292 118.466C36.7607 118.536 37.2362 118.549 37.708 118.505C37.2446 118.457 36.788 118.358 36.3468 118.209V118.209Z" fill="black"/>
</g>
<path d="M16.5296 162.206C16.584 162.708 16.5283 163.216 16.3661 163.695C16.204 164.173 15.9395 164.611 15.5908 164.978C15.1943 165.359 14.7483 165.685 14.2647 165.948C13.7981 166.267 13.2614 166.469 12.7 166.537C11.9432 166.512 11.2242 166.201 10.6893 165.667C9.0307 164.217 8.2014 162.07 7.43469 160.008C6.42153 157.28 5.41229 154.524 4.97808 151.644C4.51257 148.557 4.71207 145.36 3.8241 142.363C4.60646 140.804 5.11499 139.066 6.01079 137.553C6.57927 136.652 7.08256 135.712 7.51683 134.739C8.34866 132.669 8.44256 130.377 7.78284 128.246C7.93972 128.144 8.12502 128.094 8.31203 128.104C8.49904 128.114 8.67809 128.183 8.82338 128.3C9.10771 128.544 9.32343 128.857 9.44926 129.208C9.96581 130.411 10.1806 131.721 10.0751 133.024C10.0082 133.338 10.0453 133.665 10.1808 133.956C10.302 134.105 10.4582 134.222 10.6355 134.297C10.8129 134.372 11.006 134.402 11.1978 134.385C11.9954 134.345 12.7844 134.202 13.5449 133.96C15.908 133.359 18.3556 133.157 20.7856 133.363C21.2753 133.378 21.7564 133.495 22.1978 133.706C22.416 133.815 22.5996 133.982 22.7281 134.188C22.8566 134.395 22.9249 134.633 22.9254 134.876L17.1359 135.721C16.7001 135.746 16.2793 135.889 15.9194 136.135C15.7462 136.265 15.6317 136.458 15.601 136.672C15.5702 136.886 15.6256 137.103 15.7551 137.277C15.8774 137.376 16.0083 137.465 16.1463 137.542C16.2947 137.654 16.4143 137.799 16.4951 137.966C16.5759 138.133 16.6157 138.317 16.6111 138.503C16.6065 138.688 16.5577 138.87 16.4687 139.033C16.3797 139.196 16.2531 139.335 16.0993 139.44C15.9536 139.507 15.8212 139.599 15.7081 139.713C15.4734 140.028 15.7864 140.445 15.8881 140.827C15.932 141.109 15.8889 141.398 15.7645 141.655C15.6402 141.911 15.4404 142.125 15.1918 142.266C14.6897 142.54 14.1427 142.724 13.5762 142.807C12.4394 143.069 11.332 143.443 10.2707 143.926C9.92524 144.049 9.6252 144.273 9.41015 144.569C9.12458 145.053 9.31235 145.661 9.50794 146.187L11.0179 150.233C11.2526 150.868 11.4912 151.503 11.8003 152.115C12.1914 152.895 12.6569 153.651 13.052 154.454C13.4471 155.257 13.7053 155.954 13.9948 156.718C14.7497 158.78 16.2714 160.027 16.5296 162.206Z" fill="#EE8E9E"/>
<path d="M86.8167 135.959H68.7716V153.366H86.8167V135.959Z" fill="url(#paint12_linear)"/>
<path d="M86.5077 136.259H69.0846V153.066H86.5077V136.259Z" fill="#7CFCFF"/>
<path d="M83.4877 134.934C83.1658 135.173 82.9331 135.511 82.8266 135.897C82.802 135.976 82.8035 136.061 82.831 136.14C82.8584 136.219 82.9104 136.286 82.9792 136.333C83.0657 136.361 83.1587 136.361 83.2452 136.333C83.6783 136.257 84.0833 136.067 84.4187 135.784C84.2857 135.854 84.1675 135.949 84.0706 136.064C84.0229 136.123 83.9931 136.193 83.9847 136.268C83.9764 136.343 83.9899 136.418 84.0237 136.485C84.0717 136.543 84.1312 136.591 84.1985 136.625C84.2658 136.659 84.3394 136.679 84.4148 136.684C84.9729 136.785 85.5468 136.758 86.093 136.606C85.8385 136.701 85.6028 136.839 85.3967 137.015C85.2943 137.105 85.2128 137.216 85.1581 137.341C85.1033 137.466 85.0766 137.601 85.0798 137.736C85.0803 137.788 85.0916 137.838 85.1132 137.884C85.1348 137.931 85.1661 137.972 85.205 138.005C85.2618 138.041 85.326 138.064 85.3928 138.072C85.9104 138.162 86.4399 138.162 86.9575 138.072C87.091 138.066 87.221 138.028 87.3357 137.96C87.4505 137.892 87.5464 137.796 87.6147 137.682C87.6412 137.553 87.6414 137.42 87.6152 137.29C87.589 137.161 87.5369 137.038 87.4621 136.93C87.1846 136.335 87.0507 135.683 87.071 135.028C87.0879 134.895 87.069 134.761 87.0162 134.638C86.93 134.519 86.8081 134.43 86.668 134.384C86.1165 134.143 85.3654 133.808 84.7513 133.995C84.2722 134.222 83.8428 134.541 83.4877 134.934V134.934Z" fill="#EE8E9E"/>
<defs>
<linearGradient id="paint0_linear" x1="134.126" y1="128.811" x2="134.126" y2="111.404" gradientUnits="userSpaceOnUse">
<stop stop-color="#808080" stop-opacity="0.25"/>
<stop offset="0.54" stop-color="#808080" stop-opacity="0.12"/>
<stop offset="1" stop-color="#808080" stop-opacity="0.1"/>
</linearGradient>
<linearGradient id="paint1_linear" x1="9489.83" y1="5691.82" x2="9489.83" y2="4914.42" gradientUnits="userSpaceOnUse">
<stop stop-color="#808080" stop-opacity="0.25"/>
<stop offset="0.54" stop-color="#808080" stop-opacity="0.12"/>
<stop offset="1" stop-color="#808080" stop-opacity="0.1"/>
</linearGradient>
<linearGradient id="paint2_linear" x1="12863.6" y1="8396.95" x2="12863.6" y2="7619.55" gradientUnits="userSpaceOnUse">
<stop stop-color="#808080" stop-opacity="0.25"/>
<stop offset="0.54" stop-color="#808080" stop-opacity="0.12"/>
<stop offset="1" stop-color="#808080" stop-opacity="0.1"/>
</linearGradient>
<linearGradient id="paint3_linear" x1="5373.53" y1="4447.65" x2="5373.53" y2="3670.25" gradientUnits="userSpaceOnUse">
<stop stop-color="#808080" stop-opacity="0.25"/>
<stop offset="0.54" stop-color="#808080" stop-opacity="0.12"/>
<stop offset="1" stop-color="#808080" stop-opacity="0.1"/>
</linearGradient>
<linearGradient id="paint4_linear" x1="7063.4" y1="5586.64" x2="7063.4" y2="4809.24" gradientUnits="userSpaceOnUse">
<stop stop-color="#808080" stop-opacity="0.25"/>
<stop offset="0.54" stop-color="#808080" stop-opacity="0.12"/>
<stop offset="1" stop-color="#808080" stop-opacity="0.1"/>
</linearGradient>
<linearGradient id="paint5_linear" x1="13858.4" y1="8391.25" x2="13858.4" y2="7613.85" gradientUnits="userSpaceOnUse">
<stop stop-color="#808080" stop-opacity="0.25"/>
<stop offset="0.54" stop-color="#808080" stop-opacity="0.12"/>
<stop offset="1" stop-color="#808080" stop-opacity="0.1"/>
</linearGradient>
<linearGradient id="paint6_linear" x1="15351.7" y1="4458.14" x2="15351.7" y2="3680.74" gradientUnits="userSpaceOnUse">
<stop stop-color="#808080" stop-opacity="0.25"/>
<stop offset="0.54" stop-color="#808080" stop-opacity="0.12"/>
<stop offset="1" stop-color="#808080" stop-opacity="0.1"/>
</linearGradient>
<linearGradient id="paint7_linear" x1="15259.6" y1="6985.29" x2="15259.6" y2="6207.89" gradientUnits="userSpaceOnUse">
<stop stop-color="#808080" stop-opacity="0.25"/>
<stop offset="0.54" stop-color="#808080" stop-opacity="0.12"/>
<stop offset="1" stop-color="#808080" stop-opacity="0.1"/>
</linearGradient>
<linearGradient id="paint8_linear" x1="15904.9" y1="7163.26" x2="15904.9" y2="6385.86" gradientUnits="userSpaceOnUse">
<stop stop-color="#808080" stop-opacity="0.25"/>
<stop offset="0.54" stop-color="#808080" stop-opacity="0.12"/>
<stop offset="1" stop-color="#808080" stop-opacity="0.1"/>
</linearGradient>
<linearGradient id="paint9_linear" x1="13184.2" y1="8113.77" x2="13184.2" y2="7336.37" gradientUnits="userSpaceOnUse">
<stop stop-color="#808080" stop-opacity="0.25"/>
<stop offset="0.54" stop-color="#808080" stop-opacity="0.12"/>
<stop offset="1" stop-color="#808080" stop-opacity="0.1"/>
</linearGradient>
<linearGradient id="paint10_linear" x1="13276.4" y1="5711.22" x2="13276.4" y2="4933.82" gradientUnits="userSpaceOnUse">
<stop stop-color="#808080" stop-opacity="0.25"/>
<stop offset="0.54" stop-color="#808080" stop-opacity="0.12"/>
<stop offset="1" stop-color="#808080" stop-opacity="0.1"/>
</linearGradient>
<linearGradient id="paint11_linear" x1="10650.3" y1="100969" x2="30036.6" y2="100969" gradientUnits="userSpaceOnUse">
<stop stop-color="#808080" stop-opacity="0.25"/>
<stop offset="0.54" stop-color="#808080" stop-opacity="0.12"/>
<stop offset="1" stop-color="#808080" stop-opacity="0.1"/>
</linearGradient>
<linearGradient id="paint12_linear" x1="5082.79" y1="6985.29" x2="5082.79" y2="6207.89" gradientUnits="userSpaceOnUse">
<stop stop-color="#808080" stop-opacity="0.25"/>
<stop offset="0.54" stop-color="#808080" stop-opacity="0.12"/>
<stop offset="1" stop-color="#808080" stop-opacity="0.1"/>
</linearGradient>
</defs>
</svg>
