<svg width="377" height="300" viewBox="0 0 377 300" fill="none" xmlns="http://www.w3.org/2000/svg">
<g clip-path="url(#clip0)">
<path d="M22.4944 283.872C22.4944 283.872 6.38948 282.9 8.28686 294.19C8.28686 294.19 7.90586 296.182 9.71561 297.089C9.71561 297.089 9.74609 296.251 11.3692 296.537C11.9467 296.634 12.5338 296.662 13.1179 296.62C13.9088 296.566 14.6605 296.256 15.2592 295.736C15.2592 295.736 19.7855 293.866 21.5495 286.467C21.5495 286.467 22.8525 284.851 22.7992 284.436L20.0826 285.579C20.0826 285.579 21.0085 287.541 20.2808 289.168C20.2808 289.168 20.1893 285.651 19.6674 285.739C19.5607 285.758 18.2577 286.421 18.2577 286.421C18.2577 286.421 19.854 289.85 18.6387 292.319C18.6387 292.319 19.0959 288.109 17.7471 286.665L15.8421 287.785C15.8421 287.785 17.7128 291.313 16.4441 294.19C16.4441 294.19 16.7679 289.774 15.4421 288.055L13.7085 289.408C13.7085 289.408 15.4611 292.887 14.3905 295.272C14.3905 295.272 14.2533 290.132 13.3313 289.743C13.3313 289.743 11.8073 291.081 11.5825 291.648C11.5825 291.648 12.7865 294.17 12.0397 295.504C12.0397 295.504 11.5825 292.075 11.2091 292.075C11.2091 292.075 9.68513 294.342 9.54035 295.885C9.54035 295.885 9.60512 293.568 10.8396 291.843C9.96821 292.006 9.1641 292.422 8.52689 293.039C8.52689 293.039 8.76311 291.435 11.2129 291.294C11.2129 291.294 12.4626 289.576 12.7979 289.469C12.7979 289.469 10.3595 289.267 8.88122 289.922C8.88122 289.922 10.1804 288.398 13.2437 289.096L14.9582 287.697C14.9582 287.697 11.7463 287.259 10.3862 287.743C10.3862 287.743 11.9521 286.406 15.4192 287.381L17.2823 286.269C17.2823 286.269 14.5429 285.678 12.9122 285.888C12.9122 285.888 14.6343 284.958 17.8271 285.964L19.1606 285.366C19.1606 285.366 17.1527 284.985 16.566 284.908C15.9793 284.832 15.9488 284.684 15.9488 284.684C17.2194 284.472 18.5239 284.617 19.7169 285.103C19.7169 285.103 22.5439 284.051 22.4944 283.872Z" fill="#AB00EA"/>
<path opacity="0.1" d="M11.3995 300C17.6953 300 22.7991 299.137 22.7991 298.072C22.7991 297.007 17.6953 296.144 11.3995 296.144C5.10375 296.144 0 297.007 0 298.072C0 299.137 5.10375 300 11.3995 300Z" fill="#AB00EA"/>
<path d="M376.112 258.235C376.112 258.235 367.029 257.686 368.112 264.049C368.056 264.372 368.104 264.705 368.249 264.999C368.394 265.293 368.629 265.534 368.919 265.687C368.919 265.687 368.919 265.215 369.849 265.375C370.175 265.428 370.506 265.443 370.836 265.42C371.281 265.391 371.705 265.217 372.043 264.925C372.043 264.925 374.596 263.87 375.591 259.698C375.591 259.698 376.322 258.787 376.295 258.555L374.771 259.21C374.771 259.21 375.293 260.315 374.882 261.237C374.882 261.237 374.832 259.252 374.539 259.298C374.478 259.298 373.739 259.679 373.739 259.679C373.739 259.679 374.642 261.584 373.964 263.001C373.964 263.001 374.219 260.631 373.461 259.816L372.379 260.444C372.379 260.444 373.434 262.437 372.718 264.06C372.718 264.06 372.904 261.568 372.154 260.601L371.175 261.363C371.175 261.363 372.165 263.321 371.556 264.67C371.556 264.67 371.476 261.77 370.958 261.553C370.587 261.866 370.255 262.223 369.971 262.616C369.971 262.616 370.649 264.037 370.23 264.792C370.23 264.792 369.971 262.86 369.757 262.852C369.757 262.852 368.908 264.129 368.82 265.005C368.859 264.192 369.112 263.404 369.552 262.719C369.06 262.812 368.607 263.048 368.249 263.397C368.249 263.397 368.382 262.49 369.773 262.41C369.773 262.41 370.477 261.443 370.668 261.382C370.668 261.382 369.293 261.267 368.458 261.637C368.458 261.637 369.194 260.783 370.919 261.172L371.883 260.383C371.883 260.383 370.074 260.136 369.308 260.41C369.308 260.41 370.192 259.648 372.142 260.204L373.194 259.576C372.386 259.399 371.559 259.328 370.733 259.366C370.733 259.366 371.701 258.84 373.503 259.408L374.265 259.069C374.265 259.069 373.122 258.848 372.805 258.814C372.489 258.779 372.455 258.688 372.455 258.688C373.172 258.569 373.908 258.65 374.581 258.924C374.581 258.924 376.139 258.334 376.112 258.235Z" fill="#AB00EA"/>
<path opacity="0.1" d="M369.857 267.326C373.406 267.326 376.284 266.839 376.284 266.24C376.284 265.64 373.406 265.154 369.857 265.154C366.307 265.154 363.429 265.64 363.429 266.24C363.429 266.839 366.307 267.326 369.857 267.326Z" fill="#AB00EA"/>
<path d="M357.436 275.559C357.436 275.559 346.471 274.9 347.781 282.589C347.715 282.979 347.773 283.38 347.948 283.735C348.124 284.091 348.406 284.381 348.757 284.566C348.757 284.566 348.757 283.994 349.9 284.185C350.294 284.251 350.694 284.271 351.092 284.242C351.63 284.205 352.141 283.993 352.548 283.64C352.548 283.64 355.63 282.368 356.826 277.331C356.826 277.331 357.714 276.23 357.68 275.948L355.828 276.74C355.828 276.74 356.461 278.074 355.965 279.182C355.965 279.182 355.904 276.786 355.55 276.843C355.478 276.843 354.586 277.304 354.586 277.304C354.586 277.304 355.676 279.632 354.853 281.32C354.853 281.32 355.165 278.455 354.247 277.475L352.944 278.237C352.944 278.237 354.216 280.642 353.355 282.6C353.355 282.6 353.576 279.594 352.67 278.409L351.492 279.327C351.492 279.327 352.685 281.697 351.957 283.32C351.957 283.32 351.862 279.822 351.233 279.56C351.233 279.56 350.201 280.466 350.044 280.844C350.044 280.844 350.864 282.562 350.357 283.469C350.357 283.469 350.044 281.137 349.789 281.125C349.789 281.125 348.761 282.669 348.646 283.728C348.698 282.749 349.004 281.801 349.534 280.977C348.94 281.089 348.392 281.373 347.957 281.792C347.957 281.792 348.117 280.703 349.785 280.607C349.785 280.607 350.635 279.434 350.864 279.361C350.864 279.361 349.202 279.224 348.197 279.67C348.197 279.67 349.084 278.641 351.168 279.11L352.334 278.157C352.334 278.157 350.147 277.856 349.222 278.188C349.222 278.188 350.288 277.277 352.651 277.94L353.919 277.178C353.919 277.178 352.056 276.778 350.947 276.923C350.947 276.923 352.117 276.291 354.293 276.976L355.199 276.569C355.199 276.569 353.832 276.298 353.435 276.256C353.039 276.214 353.012 276.104 353.012 276.104C353.877 275.96 354.765 276.059 355.577 276.39C355.577 276.39 357.466 275.681 357.436 275.559Z" fill="#AB00EA"/>
<path opacity="0.1" d="M349.88 286.535C354.167 286.535 357.641 285.949 357.641 285.225C357.641 284.501 354.167 283.914 349.88 283.914C345.594 283.914 342.12 284.501 342.12 285.225C342.12 285.949 345.594 286.535 349.88 286.535Z" fill="#AB00EA"/>
<path opacity="0.1" d="M306.892 282.257C326.32 282.257 342.07 279.799 342.07 276.767C342.07 273.734 326.32 271.276 306.892 271.276C287.464 271.276 271.714 273.734 271.714 276.767C271.714 279.799 287.464 282.257 306.892 282.257Z" fill="#AB00EA"/>
<path opacity="0.1" d="M195.575 296.544C217.406 296.544 235.104 294.769 235.104 292.578C235.104 290.388 217.406 288.612 195.575 288.612C173.744 288.612 156.046 290.388 156.046 292.578C156.046 294.769 173.744 296.544 195.575 296.544Z" fill="#AB00EA"/>
<path opacity="0.1" d="M75.8153 292.605C92.386 292.605 105.819 291.776 105.819 290.753C105.819 289.73 92.386 288.901 75.8153 288.901C59.2447 288.901 45.8115 289.73 45.8115 290.753C45.8115 291.776 59.2447 292.605 75.8153 292.605Z" fill="#AB00EA"/>
<path opacity="0.1" d="M129.087 13.0494C140.216 3.14334 157.689 1.11261 173.588 1.90128C223.533 4.3816 268.617 28.4951 307.616 55.771C321.736 65.6427 335.635 76.284 344.798 89.882C363.467 117.558 357.92 155.902 331.981 178.705C323.153 186.462 312.455 192.421 301.471 197.682C281.941 207.059 260.867 214.584 238.705 216.732C222.897 218.256 206.895 217.018 191.182 214.884C147.276 208.926 104.181 195.758 68.062 173.241C52.22 163.335 37.2848 151.067 30.7544 135.084C24.2241 119.101 28.4036 98.8469 44.5809 89.3867C51.2713 85.4738 59.2723 83.7059 67.1019 82.0486C78.631 79.6064 90.3429 77.1985 100.748 72.2302C111.492 67.1019 124.214 57.1845 122.084 45.8345C119.806 33.6539 117.973 22.9554 129.087 13.0494Z" fill="#AB00EA"/>
<path opacity="0.9" d="M221.308 149.269V76.5203H231.214V54.8032H160.234V76.5203H170.14V149.269C156.46 154.464 144.683 163.697 136.371 175.741C128.06 187.785 123.607 202.072 123.604 216.706C123.604 256.539 155.898 288.829 195.732 288.829C235.565 288.829 267.855 256.539 267.855 216.706C267.851 202.071 263.397 187.783 255.084 175.738C246.77 163.694 234.991 154.462 221.308 149.269Z" fill="#96B7FE"/>
<path opacity="0.1" d="M221.308 76.2954H170.124V77.2746H221.308V76.2954Z" fill="black"/>
<path d="M155.376 214.77C155.376 214.77 198.81 214.008 220.527 203.138C242.244 192.268 254.653 201.973 253.487 208.568C252.322 215.163 246.123 227.953 221.304 229.523C196.486 231.092 155.376 214.77 155.376 214.77Z" fill="#AB00EA"/>
<path opacity="0.1" d="M155.376 214.77C155.376 214.77 198.81 214.008 220.527 203.138C242.244 192.268 254.653 201.973 253.487 208.568C252.322 215.163 246.123 227.953 221.304 229.523C196.486 231.092 155.376 214.77 155.376 214.77Z" fill="black"/>
<path d="M136.775 207.798C136.775 207.798 132.135 272.168 193 273.33C253.865 274.492 253.491 208.56 253.491 208.56C253.491 208.56 231.012 232.986 177.878 212.823C177.878 212.839 150.347 205.47 136.775 207.798Z" fill="#AB00EA"/>
<path opacity="0.1" d="M253.293 208.792C252.078 223.621 244.195 270.038 193.023 269.059C142.86 268.11 137.179 224.257 136.734 208.83C136.455 217.11 136.703 272.248 193.011 273.326C253.891 274.469 253.503 208.556 253.503 208.556C253.503 208.556 253.426 208.651 253.293 208.792Z" fill="black"/>
<path opacity="0.3" d="M193.369 187.921C197.731 187.921 201.268 184.385 201.268 180.023C201.268 175.661 197.731 172.125 193.369 172.125C189.007 172.125 185.471 175.661 185.471 180.023C185.471 184.385 189.007 187.921 193.369 187.921Z" fill="#AB00EA"/>
<path opacity="0.3" d="M197.88 153.315C200.58 153.315 202.769 151.126 202.769 148.426C202.769 145.727 200.58 143.538 197.88 143.538C195.181 143.538 192.992 145.727 192.992 148.426C192.992 151.126 195.181 153.315 197.88 153.315Z" fill="#AB00EA"/>
<path opacity="0.3" d="M186.972 125.102C189.672 125.102 191.861 122.913 191.861 120.213C191.861 117.514 189.672 115.325 186.972 115.325C184.273 115.325 182.084 117.514 182.084 120.213C182.084 122.913 184.273 125.102 186.972 125.102Z" fill="#AB00EA"/>
<path opacity="0.2" d="M145.089 186.115C144.67 189.445 144.754 193.613 147.729 195.168C145.234 193.865 155.464 179.089 154.012 176.072C150.907 169.633 145.47 183.021 145.089 186.115Z" fill="white"/>
<path opacity="0.3" d="M183.021 40.287C187.383 40.287 190.919 36.7509 190.919 32.3889C190.919 28.0268 187.383 24.4907 183.021 24.4907C178.659 24.4907 175.123 28.0268 175.123 32.3889C175.123 36.7509 178.659 40.287 183.021 40.287Z" fill="#AB00EA"/>
<path opacity="0.3" d="M206.716 24.7195C209.958 24.7195 212.587 22.0909 212.587 18.8483C212.587 15.6057 209.958 12.9771 206.716 12.9771C203.473 12.9771 200.845 15.6057 200.845 18.8483C200.845 22.0909 203.473 24.7195 206.716 24.7195Z" fill="#AB00EA"/>
<path opacity="0.3" d="M189.792 6.10363C191.477 6.10363 192.844 4.73729 192.844 3.05182C192.844 1.36634 191.477 0 189.792 0C188.106 0 186.74 1.36634 186.74 3.05182C186.74 4.73729 188.106 6.10363 189.792 6.10363Z" fill="#AB00EA"/>
<path opacity="0.9" d="M108.132 100.271H44.3027V119.203H54.0297V266.902C53.9912 269.841 54.5367 272.758 55.6347 275.484C56.7326 278.21 58.3611 280.691 60.4256 282.783C62.4901 284.875 64.9494 286.535 67.6609 287.669C70.3725 288.803 73.2821 289.386 76.2211 289.386C79.16 289.386 82.0697 288.803 84.7812 287.669C87.4927 286.535 89.9521 284.875 92.0166 282.783C94.0811 280.691 95.7095 278.21 96.8075 275.484C97.9054 272.758 98.451 269.841 98.4125 266.902V119.203H108.132V100.271Z" fill="#96B7FE"/>
<path d="M68.8163 152.667C68.8163 152.667 84.6126 147.025 89.0093 151.037C89.0093 151.037 82.6123 160.44 76.722 160.062C70.8318 159.685 68.8163 152.667 68.8163 152.667Z" fill="#AB00EA"/>
<path opacity="0.1" d="M68.8163 152.667C68.8163 152.667 84.6126 147.025 89.0093 151.037C89.0093 151.037 82.6123 160.44 76.722 160.062C70.8318 159.685 68.8163 152.667 68.8163 152.667Z" fill="black"/>
<path d="M89.0018 151.051V258.25C89.0018 260.028 88.6515 261.789 87.971 263.432C87.2906 265.074 86.2931 266.567 85.0358 267.825C83.7784 269.082 82.2857 270.079 80.6428 270.76C79 271.44 77.2392 271.791 75.461 271.791C71.8698 271.791 68.4256 270.364 65.8862 267.825C63.3468 265.285 61.9202 261.841 61.9202 258.25V151.051C61.9202 151.051 68.4392 149.295 74.5809 153.059C80.7226 156.824 89.0018 151.051 89.0018 151.051Z" fill="#AB00EA"/>
<path opacity="0.1" d="M98.4049 119.085H54.0221V119.958H98.4049V119.085Z" fill="black"/>
<path opacity="0.1" d="M75.461 265.272C73.6825 265.272 71.9214 264.921 70.2783 264.241C68.6352 263.56 67.1423 262.562 65.8849 261.304C64.6275 260.046 63.6301 258.553 62.9499 256.91C62.2696 255.267 61.9197 253.506 61.9202 251.727V258.497C61.9202 262.089 63.3468 265.533 65.8862 268.072C68.4256 270.612 71.8698 272.038 75.461 272.038C79.0522 272.038 82.4964 270.612 85.0358 268.072C87.5752 265.533 89.0018 262.089 89.0018 258.497V251.727C89.0023 253.506 88.6524 255.267 87.9721 256.91C87.2919 258.553 86.2945 260.046 85.0371 261.304C83.7797 262.562 82.2868 263.56 80.6437 264.241C79.0006 264.921 77.2395 265.272 75.461 265.272Z" fill="black"/>
<path opacity="0.3" d="M75.4647 140.524C76.9882 140.524 78.2232 139.289 78.2232 137.766C78.2232 136.242 76.9882 135.007 75.4647 135.007C73.9413 135.007 72.7063 136.242 72.7063 137.766C72.7063 139.289 73.9413 140.524 75.4647 140.524Z" fill="#AB00EA"/>
<path opacity="0.3" d="M84.4908 129.742C85.4608 129.742 86.2472 128.956 86.2472 127.986C86.2472 127.016 85.4608 126.229 84.4908 126.229C83.5207 126.229 82.7344 127.016 82.7344 127.986C82.7344 128.956 83.5207 129.742 84.4908 129.742Z" fill="#AB00EA"/>
<path opacity="0.3" d="M72.2035 126.233C73.1735 126.233 73.9599 125.447 73.9599 124.477C73.9599 123.507 73.1735 122.72 72.2035 122.72C71.2335 122.72 70.4471 123.507 70.4471 124.477C70.4471 125.447 71.2335 126.233 72.2035 126.233Z" fill="#AB00EA"/>
<path opacity="0.2" d="M57.4587 172.952C57.0396 176.282 57.1235 180.45 60.0991 182.004C57.5997 180.701 67.8334 165.93 66.3818 162.908C63.269 156.477 57.8397 169.862 57.4587 172.952Z" fill="white"/>
<path opacity="0.3" d="M81.1875 88.4266C84.8888 88.4266 87.8893 85.4261 87.8893 81.7248C87.8893 78.0234 84.8888 75.0229 81.1875 75.0229C77.4862 75.0229 74.4857 78.0234 74.4857 81.7248C74.4857 85.4261 77.4862 88.4266 81.1875 88.4266Z" fill="#AB00EA"/>
<path opacity="0.3" d="M61.0821 75.2175C63.8344 75.2175 66.0656 72.9863 66.0656 70.234C66.0656 67.4817 63.8344 65.2505 61.0821 65.2505C58.3298 65.2505 56.0986 67.4817 56.0986 70.234C56.0986 72.9863 58.3298 75.2175 61.0821 75.2175Z" fill="#AB00EA"/>
<path opacity="0.3" d="M75.442 59.4209C76.8729 59.4209 78.0328 58.2609 78.0328 56.8301C78.0328 55.3992 76.8729 54.2393 75.442 54.2393C74.0111 54.2393 72.8512 55.3992 72.8512 56.8301C72.8512 58.2609 74.0111 59.4209 75.442 59.4209Z" fill="#AB00EA"/>
<path d="M341.323 171.954C341.323 171.954 335.475 142.868 337.712 139.248C337.712 139.248 337.792 135.884 337.658 131.598C337.658 131.434 337.658 131.27 337.658 131.103C338.05 131.37 338.46 131.609 338.885 131.819C340.946 132.882 343.315 133.188 345.579 132.684L343.8 130.71C343.377 130.238 342.931 129.731 342.84 129.106C342.816 128.505 342.947 127.908 343.221 127.373C344.901 123.125 345.004 117.779 341.75 114.537C339.015 111.809 338.344 108.288 335.387 105.8C333.216 103.975 332.023 101.301 330.895 98.7214C329.943 96.5345 328.99 94.3323 328.438 92.0158C328.011 90.206 327.844 88.3353 327.257 86.5675C326.67 84.7996 325.581 83.0813 323.87 82.2927C323.235 82.071 322.62 81.7983 322.03 81.4773C321.298 80.9858 320.86 80.1857 320.334 79.4885C317.667 75.9414 308.676 78.0293 304.424 79.4694C303.269 79.8316 302.2 80.4239 301.28 81.2106L301.318 81.1458L301.425 80.9896C300.961 81.3657 300.56 81.8133 300.236 82.3155C299.615 83.2985 299.356 84.4529 298.842 85.4892C298.217 86.7466 294.75 90.2556 296.24 91.6691C296.342 91.7637 296.459 91.8409 296.586 91.8977C297.143 92.1248 297.753 92.1857 298.343 92.0729C298.32 92.1225 298.297 92.172 298.278 92.2215C297.772 93.4691 297.513 94.8033 297.516 96.1497C297.541 98.9683 298.685 101.661 300.695 103.637C302.706 105.613 305.419 106.709 308.237 106.684C309.351 106.686 310.459 106.516 311.522 106.181C311.548 106.315 311.571 106.448 311.594 106.581C311.594 106.639 311.594 106.692 311.621 106.745L311.434 107.008L311.403 106.959L305.845 114.731C304.995 115.325 300.099 118.869 299.836 121.524C299.547 124.431 299.257 127.837 299.257 127.837L299.219 128.565C298.976 128.768 298.693 128.916 298.388 128.999C298.083 129.081 297.763 129.097 297.451 129.045C295.718 128.76 295.718 135.431 295.718 135.431C295.718 135.431 294.575 136.494 293.771 135.572C292.967 134.65 290.883 137.77 290.883 137.77L277.742 138.338H277.441L276.732 136.143C276.655 135.917 276.492 135.729 276.279 135.619C276.066 135.51 275.819 135.487 275.589 135.557C275.534 135.572 275.48 135.594 275.429 135.621L275.384 135.652C275.351 135.67 275.32 135.692 275.292 135.717C275.274 135.728 275.257 135.743 275.243 135.758C275.217 135.781 275.192 135.805 275.17 135.831C275.157 135.847 275.144 135.863 275.132 135.88L275.109 135.903C275.028 136.016 274.973 136.147 274.951 136.284C274.928 136.422 274.938 136.563 274.98 136.696L275.589 138.578C273.056 139.088 270.461 140.525 272.576 144.487L261.862 142.51L265.329 145.417L283.236 149.113C283 149.539 283.156 150.153 283.895 151.018C287.077 154.759 292.891 155.772 295.226 156.039C295.84 157.415 296.607 158.717 297.512 159.922L297.306 163.648C297.306 163.648 291.393 192.067 290.307 193.511C290.844 192.887 291.334 192.225 291.774 191.529C290.056 197.37 287.656 205.364 287.027 206.56C286.014 208.465 285.076 216.207 286.231 216.706C286.593 216.858 287.595 216.786 289.039 216.675V217.316L288.974 241.604C288.974 241.604 289.264 256.505 288.467 257.923C287.671 259.34 287.458 262.319 287.458 262.319C287.458 262.319 284.265 268.198 281.743 270.56L281.685 270.61L281.605 270.054C281.605 270.054 278.557 273.887 271.859 273.673C271.859 273.673 267.817 276.298 273.81 276.439C279.803 276.58 287.454 276.226 287.454 276.226C287.454 276.226 292.788 268.069 297.272 269.132V275.304H298.644V269.078C299.28 268.659 299.824 268.115 300.243 267.479C300.662 266.843 300.947 266.128 301.082 265.379C301.2 264.608 301.115 263.82 300.835 263.092C300.555 262.364 300.09 261.722 299.486 261.23C299.214 260.983 298.996 260.684 298.845 260.349C298.694 260.015 298.614 259.653 298.609 259.287L298.56 259.328C298.56 259.207 298.529 259.081 298.51 258.947C298.129 255.755 297.63 249.186 299.368 244.317C301.749 237.646 302.473 228.357 300.739 222.821C300.181 221.054 299.723 219.256 299.368 217.437C299.326 217.205 299.284 216.988 299.25 216.782C300.436 216.944 301.611 217.185 302.766 217.502C306.79 218.607 315.579 218.813 323.085 218.756C323.104 218.961 323.127 219.175 323.15 219.392C323.287 220.889 323.571 222.369 323.996 223.812C324.933 226.654 325.367 239.135 325.367 239.135C325.367 239.135 326.583 249.403 325.92 253.587C325.539 255.911 325.219 258.243 325.009 260.586V260.632C325.009 260.632 323.02 266.305 321.58 269.395C321.542 269.475 321.508 269.551 321.47 269.627C321.08 269.663 320.696 269.746 320.327 269.875C320.327 269.875 318.38 273.776 316.429 274.416C314.478 275.056 315.13 277.182 319.534 276.401C323.938 275.62 330.583 274.984 330.583 274.984L330.873 271.01L332.225 269.318L331.882 273.281L333.326 272.999L333.136 268.175L335.349 265.405C335.349 265.405 338.016 263.028 334.05 258.349V258.448C334.008 258.38 333.966 258.311 333.921 258.246V258.224C333.265 257.202 332.74 255.301 333.7 251.926C335.433 245.83 336.443 240.294 336.443 240.294C336.443 240.294 340.318 225.469 335.658 218.451H335.868C335.39 217.464 335.051 216.415 334.862 215.334C334.839 215.205 334.82 215.071 334.797 214.953C338.226 214.755 341.628 214.13 344.383 212.789C344.352 212.747 342.695 177.558 341.323 171.954ZM297.573 147.417V147.486L296.861 147.52L297.573 147.417ZM295.146 147.752C295.029 147.777 294.919 147.83 294.826 147.905C294.522 148.336 294.331 148.836 294.27 149.36L293.165 149.109C293.165 149.109 292.403 148.945 291.26 148.762L290.73 148.232C292.201 148.095 293.71 147.931 295.146 147.752Z" fill="url(#paint0_linear)"/>
<path d="M331.703 268.209L331.28 273.231L332.694 272.945L332.48 267.504L331.703 268.209Z" fill="#1D2366"/>
<path d="M299.467 244.385C297.764 249.236 298.251 255.785 298.632 258.966C298.773 260.144 298.903 260.871 298.903 260.871C298.903 260.871 296.358 266.67 296.144 266.884C295.931 267.097 288.646 271.539 288.646 271.539L283.556 274.507C283.556 274.507 278.393 272.244 280.889 271.459C281.394 271.256 281.849 270.945 282.223 270.549C284.691 268.194 287.819 262.338 287.819 262.338C287.819 262.338 288.029 259.37 288.806 257.957C289.583 256.543 289.302 241.696 289.302 241.696L289.366 217.487V214.332L299.051 214.404C299.114 215.476 299.254 216.542 299.47 217.593C299.819 219.405 300.27 221.196 300.819 222.958C302.503 228.486 301.798 237.737 299.467 244.385Z" fill="#FFB0B1"/>
<path opacity="0.1" d="M298.899 260.871C298.899 260.871 296.354 266.67 296.141 266.884C295.927 267.097 288.646 271.539 288.646 271.539L283.556 274.507C283.556 274.507 278.393 272.244 280.889 271.459C281.394 271.256 281.849 270.945 282.223 270.549L282.444 272.096L284.143 272.023L298.632 258.966C298.769 260.14 298.899 260.871 298.899 260.871Z" fill="black"/>
<path d="M298.724 259.301L284.124 272.453L282.424 272.522L282.074 270.049C282.074 270.049 279.102 273.859 272.526 273.654C272.526 273.654 268.567 276.271 274.431 276.412C280.295 276.553 287.796 276.199 287.796 276.199C287.796 276.199 293.028 268.068 297.409 269.131V275.28H298.754V269.059C299.38 268.637 299.913 268.094 300.323 267.46C300.733 266.827 301.011 266.118 301.139 265.374C301.256 264.609 301.174 263.826 300.9 263.101C300.627 262.376 300.171 261.734 299.577 261.237C299.31 260.989 299.097 260.69 298.95 260.357C298.803 260.024 298.726 259.665 298.724 259.301Z" fill="#1D2366"/>
<path d="M333.048 251.948C332.107 255.312 332.621 257.206 333.261 258.223V258.246C334.094 259.505 334.672 260.914 334.964 262.395L335.025 262.715L328.381 272.4L324.776 273.814C324.776 273.814 318.978 271.836 320.037 271.269C320.303 271.128 320.719 270.396 321.18 269.364C322.601 266.316 324.552 260.654 324.552 260.654V260.604C324.754 258.269 325.081 255.945 325.443 253.628C326.091 249.464 324.902 239.23 324.902 239.23C324.902 239.23 324.479 226.791 323.557 223.96C323.143 222.521 322.866 221.046 322.73 219.555C322.54 217.776 322.498 216.325 322.498 216.325C322.498 216.325 326.308 211.021 333.315 216.747C333.872 217.207 334.363 217.742 334.774 218.336C339.609 225.194 335.719 240.362 335.719 240.362C335.719 240.362 334.743 245.871 333.048 251.948Z" fill="#FFB0B1"/>
<path opacity="0.1" d="M335.025 262.696L328.381 272.381L324.776 273.795C324.776 273.795 318.978 271.817 320.037 271.25C320.303 271.109 320.719 270.377 321.18 269.345C323.633 269.345 324.906 271.661 324.906 271.661L328.015 271.17C328.015 271.17 332.118 263.108 333.036 262.616C333.955 262.125 333.177 258.936 333.177 258.936V258.124L333.25 258.212V258.235C334.088 259.496 334.67 260.91 334.964 262.395L335.025 262.696Z" fill="black"/>
<path d="M325.127 271.886C325.127 271.886 323.359 268.636 319.968 269.836C319.968 269.836 318.063 273.726 316.158 274.363C314.253 274.999 314.886 277.117 319.206 276.34C323.527 275.563 330.023 274.926 330.023 274.926L330.305 270.968L334.686 265.382C334.686 265.382 337.304 263.013 333.414 258.349V259.161C333.414 259.161 334.176 262.342 333.273 262.837C332.37 263.333 328.255 271.391 328.255 271.391L325.127 271.886Z" fill="#1D2366"/>
<path opacity="0.1" d="M299.04 214.408C299.102 215.48 299.243 216.546 299.459 217.597C295.47 217.011 291.77 217.304 289.347 217.491V214.336L299.04 214.408Z" fill="black"/>
<path opacity="0.1" d="M335.166 219.216C335.166 219.216 329.497 219.49 322.746 219.548C322.555 217.768 322.513 216.317 322.513 216.317C322.513 216.317 326.323 211.013 333.33 216.74C333.887 217.199 334.378 217.734 334.789 218.328C334.899 218.631 335.025 218.927 335.166 219.216Z" fill="black"/>
<path d="M335.166 218.58C335.166 218.58 310.352 219.78 302.781 217.662C295.211 215.544 287.724 217.376 286.592 216.881C285.461 216.386 286.383 208.682 287.354 206.773C288.326 204.864 293.79 185.563 293.79 185.563L299.021 158.272L304.538 156.748L304.919 156.641L314.524 153.974L321.568 152.031C321.568 152.031 335.566 206.682 334.362 210.705C333.926 212.249 333.857 213.873 334.16 215.448C334.349 216.534 334.687 217.588 335.166 218.58Z" fill="#1D2366"/>
<path d="M280.801 139.606C280.801 139.606 275.848 144.91 279.597 147.878C283.346 150.846 285.819 148.164 285.819 148.164L280.801 139.606Z" fill="#C7DAF5"/>
<path opacity="0.1" d="M280.801 139.606C280.801 139.606 275.848 144.91 279.597 147.878C283.346 150.846 285.819 148.164 285.819 148.164L280.801 139.606Z" fill="black"/>
<path d="M320.852 104.684C320.852 104.684 320.273 105.232 319.397 106.051C318.151 107.213 316.307 108.916 314.668 110.345C312.382 112.319 310.535 113.774 311.201 112.528C311.868 111.282 311.742 109.141 311.411 107.126L311.342 106.726C311.066 105.246 310.699 103.784 310.245 102.348C310.245 102.348 313.906 97.616 315.933 95.7491C316.695 95.0518 317.217 94.7546 317.244 95.2423C317.282 95.9053 317.781 97.3531 318.387 98.9228C318.41 98.9685 318.429 99.018 318.448 99.0638C318.86 100.119 319.321 101.22 319.728 102.161C320.349 103.605 320.852 104.684 320.852 104.684Z" fill="#FFB0B1"/>
<path opacity="0.1" d="M318.444 99.0641C318.1 100.915 317.265 102.64 316.026 104.058C314.788 105.476 313.191 106.536 311.403 107.126C311.123 105.509 310.734 103.913 310.238 102.348C310.238 102.348 317.13 93.4405 317.237 95.2427C317.301 95.9285 317.812 97.4449 318.444 99.0641Z" fill="black"/>
<path opacity="0.1" d="M310.725 109.507L311.617 108.254C311.617 108.254 312.207 111.858 314.383 110.269C316.558 108.681 316.669 122.233 316.669 122.233L314.329 157.125L297.466 156.115L297.943 139.256L299.848 130.771L304.568 118.415L307.395 114.335L310.725 109.507Z" fill="black"/>
<path d="M316.661 122.446L314.551 153.993L314.33 157.334L304.927 156.774L304.546 156.751L297.455 156.328L297.931 139.465L299.836 130.984L304.557 118.628L307.395 114.544L310.737 109.721L311.628 108.463C311.628 108.463 312.219 112.071 314.394 110.479L314.436 110.448C316.558 109.084 316.661 122.446 316.661 122.446Z" fill="#1D2366"/>
<path d="M300.099 128.012C300.099 128.012 299.253 129.78 297.554 129.498C295.855 129.216 295.859 135.861 295.859 135.861C295.859 135.861 294.716 136.92 293.954 136.002C293.192 135.084 291.127 138.193 291.127 138.193L278.26 138.76C278.26 138.76 283.975 141.374 282.855 149.295C282.855 149.295 302.286 148.091 302.934 146.247C303.582 144.403 300.099 128.012 300.099 128.012Z" fill="white"/>
<path opacity="0.03" d="M300.099 128.012C300.099 128.012 299.253 129.78 297.554 129.498C295.855 129.216 295.859 135.861 295.859 135.861C295.859 135.861 294.716 136.92 293.954 136.002C293.192 135.084 291.127 138.193 291.127 138.193L278.26 138.76C278.26 138.76 283.975 141.374 282.855 149.295C282.855 149.295 302.286 148.091 302.934 146.247C303.582 144.403 300.099 128.012 300.099 128.012Z" fill="black"/>
<path d="M262.7 142.929L266.095 145.828L294.022 151.696L290.555 148.164L262.7 142.929Z" fill="white"/>
<path d="M310.775 110.62C310.314 111.313 308.988 114.955 307.875 118.122C306.953 120.758 306.18 123.075 306.18 123.075C306.18 123.075 304.378 134.813 303.459 136.932C302.541 139.05 303.036 147.333 303.036 147.333L299.607 167.766C299.607 167.766 298.053 178.301 295.653 184.591C293.298 190.767 290.631 193.674 290.559 193.762C291.622 192.325 297.417 164.002 297.417 164.002L299.322 128.294C299.322 128.294 299.604 124.903 299.889 122.004C300.175 119.105 305.898 115.146 305.898 115.146L311.43 107.278C311.998 108.052 311.624 109.347 310.775 110.62Z" fill="white"/>
<path d="M296.346 156.504C296.346 156.504 288.216 156.153 284.257 151.413C280.299 146.674 293.378 149.508 293.378 149.508L296.769 150.27L296.346 156.504Z" fill="#FFB0B1"/>
<path opacity="0.1" d="M334.389 210.732C333.953 212.276 333.884 213.9 334.187 215.475C325.302 216.108 315.796 213.7 315.796 213.7C314.028 215.327 309.361 217.731 309.361 217.731L306.816 186.195C305.193 181.951 304.557 159.682 304.557 159.682C304.557 159.682 304.702 158.516 304.938 156.771C304.938 156.729 304.938 156.683 304.957 156.641C305.593 151.764 306.862 142.609 307.464 141.371C308.313 139.675 304.85 135.153 304.85 135.153L306.424 121.711L306.614 120.092C309.94 118.606 312.485 113.87 312.485 113.87L314.436 110.441C316.566 109.077 316.669 122.439 316.669 122.439L314.558 153.986L321.603 152.042C321.603 152.042 335.589 206.701 334.389 210.732Z" fill="black"/>
<path d="M343.51 212.922C333.825 217.73 316.219 213.277 316.219 213.277C314.452 214.903 309.784 217.308 309.784 217.308L307.239 185.772C305.616 181.532 304.98 159.262 304.98 159.262C304.98 159.262 307.03 142.647 307.875 140.951C308.123 140.456 308.005 139.721 307.712 138.928C306.266 135.151 305.735 131.085 306.161 127.064L306.839 121.292L307.03 119.672C310.352 118.186 312.897 113.447 312.897 113.447L314.669 110.345L317.93 104.63L319.473 101.925L319.732 102.162L321.736 103.975C321.736 103.975 322.586 104.676 323.858 105.754C326.632 108.09 331.425 112.205 333.894 114.719C336.07 116.941 336.755 125.563 336.942 132.055C337.075 136.326 336.995 139.675 336.995 139.675C334.801 143.279 340.527 172.269 340.527 172.269C341.884 177.855 343.51 212.922 343.51 212.922Z" fill="white"/>
<path opacity="0.03" d="M324.921 113.378C324.921 113.378 318.273 126.035 319.054 130.839C319.835 135.644 322.022 141.092 320.959 142.365C320.595 142.847 320.125 143.238 319.585 143.507C319.045 143.777 318.45 143.918 317.846 143.919C316.787 143.992 313.956 145.969 313.956 146.182C313.956 146.396 311.342 146.396 309.003 147.386C306.664 148.377 303.204 148.941 303.204 148.941C303.204 148.941 296.487 148.727 295.851 149.364C295.215 150 294.578 153.818 295.923 156.858C297.268 159.898 298.75 162.161 299.882 162.573C301.013 162.984 308.153 160.596 313.948 160.028C319.743 159.46 326.064 154.881 326.064 154.881C326.064 154.881 332.991 152.404 334.195 148.232C335.399 144.06 332.709 121.154 332.709 121.154C332.709 121.154 330.636 110.479 324.921 113.378Z" fill="black"/>
<path opacity="0.03" d="M324.068 112.319C324.068 112.319 317.423 124.972 318.2 129.78C318.978 134.588 321.168 140.033 320.105 141.305C319.742 141.787 319.272 142.178 318.731 142.448C318.191 142.718 317.596 142.859 316.993 142.86C315.933 142.932 313.106 144.91 313.106 145.123C313.106 145.336 310.489 145.333 308.153 146.323C305.818 147.314 302.355 147.878 302.355 147.878C302.355 147.878 295.638 147.668 295.001 148.304C294.365 148.941 293.729 152.758 295.074 155.799C296.419 158.839 297.901 161.102 299.032 161.514C300.164 161.925 307.304 159.532 313.103 158.969C318.901 158.405 325.199 153.81 325.199 153.81C325.199 153.81 332.126 151.337 333.33 147.165C334.534 142.993 331.844 120.087 331.844 120.087C331.844 120.087 329.794 109.419 324.068 112.319Z" fill="black"/>
<path d="M324.704 112.742C324.704 112.742 318.063 125.399 318.825 130.188C319.587 134.977 321.793 140.441 320.73 141.713C320.367 142.196 319.897 142.587 319.357 142.857C318.817 143.127 318.221 143.268 317.617 143.268C316.558 143.34 313.731 145.318 313.731 145.531C313.731 145.744 311.114 145.744 308.778 146.735C306.443 147.726 302.979 148.289 302.979 148.289C302.979 148.289 296.262 148.076 295.626 148.712C294.99 149.349 294.354 153.166 295.698 156.207C297.043 159.247 298.525 161.51 299.657 161.922C300.789 162.333 307.929 159.944 313.727 159.377C319.526 158.809 325.817 154.218 325.817 154.218C325.817 154.218 332.743 151.741 333.947 147.569C335.151 143.397 332.461 120.492 332.461 120.492C332.461 120.492 330.43 109.843 324.704 112.742Z" fill="white"/>
<path opacity="0.1" d="M324.563 146.678C324.563 146.678 319.26 145.619 321.1 147.387C322.94 149.155 322.936 150.709 325.199 150.637C327.462 150.564 324.563 146.678 324.563 146.678Z" fill="black"/>
<path opacity="0.1" d="M333.543 184.785C333.543 184.785 331.139 186.412 335.734 190.157C340.329 193.903 333.543 184.785 333.543 184.785Z" fill="black"/>
<path opacity="0.1" d="M328.945 198.147C328.945 198.36 328.099 205.923 331.28 207.832C334.461 209.741 328.945 198.147 328.945 198.147Z" fill="black"/>
<path d="M278.466 138.753C275.905 138.841 270.362 139.625 273.235 144.982C275.776 149.722 280.043 146.556 282.432 144.148C281.849 141.908 280.43 139.977 278.466 138.753Z" fill="#FFB0B1"/>
<path d="M282.474 144.106C282.512 144.071 282.546 144.033 282.581 143.999C282.546 144.033 282.512 144.071 282.474 144.106Z" fill="#FFB0B1"/>
<path opacity="0.1" d="M323.858 105.964C321.138 107.823 318.856 109.393 318.414 109.721C317.191 110.62 314.859 115.923 313.373 118.628C312.177 120.808 308.302 121.368 306.839 121.505L307.014 119.901C310.336 118.419 312.882 113.679 312.882 113.679L319.458 102.158L321.721 104.208C321.721 104.208 322.586 104.889 323.858 105.964Z" fill="black"/>
<path d="M323.858 105.754C321.138 107.61 318.856 109.183 318.414 109.507C317.191 110.41 314.859 115.71 313.373 118.415C312.177 120.594 308.302 121.154 306.839 121.292L307.029 119.672C310.352 118.186 312.897 113.447 312.897 113.447L319.473 101.925L321.736 103.975C321.736 103.975 322.586 104.661 323.858 105.754Z" fill="#DCE7FF"/>
<path d="M318.623 96.7282C318.626 97.466 318.548 98.2019 318.391 98.9228C318.107 100.27 317.558 101.547 316.775 102.679C315.352 104.749 313.234 106.24 310.806 106.882C308.377 107.524 305.799 107.274 303.54 106.178C301.28 105.081 299.488 103.211 298.489 100.906C297.49 98.6019 297.35 96.0155 298.095 93.6167C298.84 91.2178 300.42 89.1655 302.548 87.832C304.677 86.4984 307.213 85.9722 309.696 86.3486C312.18 86.725 314.446 87.9792 316.084 89.8836C317.722 91.788 318.623 94.2164 318.623 96.7282Z" fill="#FFB0B1"/>
<path opacity="0.1" d="M336.953 132.055C335.515 131.17 334.345 129.911 333.566 128.413C332.976 127.243 332.583 125.898 331.57 125.064C330.663 124.325 329.436 124.142 328.312 123.81C324.59 122.709 321.454 119.307 321.348 115.428C321.294 113.603 321.862 111.778 321.603 109.972C321.457 108.947 321.049 107.978 320.418 107.157C320.11 106.761 319.768 106.393 319.397 106.056C318.902 105.587 318.38 105.134 317.93 104.634C317.638 104.328 317.383 103.989 317.168 103.625C317 103.326 316.864 103.011 316.76 102.684C316.067 100.52 316.696 97.944 315.918 95.7533C315.918 95.7152 315.892 95.6733 315.876 95.6352C315.579 94.8541 314.981 94.0769 314.154 94.0159C313.328 93.955 312.607 94.6446 311.815 94.957C310.154 95.6009 308.359 94.5036 306.976 93.3835C305.593 92.2633 304.031 90.9832 302.267 91.2346C301.105 91.3985 300.183 92.1947 299.112 92.6062C298.864 92.6969 298.61 92.7683 298.35 92.8196C299.26 90.5574 300.929 88.6823 303.07 87.516C305.211 86.3497 307.691 85.9649 310.085 86.4277C312.479 86.8904 314.638 88.1718 316.19 90.0521C317.742 91.9324 318.592 94.2942 318.593 96.7325C318.595 97.4703 318.517 98.2061 318.361 98.927C318.383 98.9728 318.402 99.0223 318.422 99.068C318.833 100.123 319.294 101.224 319.702 102.166L321.706 103.979C321.706 103.979 322.555 104.68 323.828 105.758C326.602 108.094 331.395 112.209 333.863 114.723C336.069 116.941 336.755 125.563 336.953 132.055Z" fill="black"/>
<path d="M299.013 86.1405C299.52 85.108 299.775 83.9535 300.377 82.9782C301.265 81.5494 302.819 80.6541 304.408 80.1054C308.569 78.6729 317.362 76.5888 319.987 80.1054C320.505 80.8027 320.932 81.6028 321.648 82.0943C322.227 82.4095 322.83 82.6796 323.451 82.902C325.127 83.6907 326.198 85.4013 326.769 87.1616C327.341 88.9218 327.508 90.7887 327.912 92.5946C328.445 94.9035 329.387 97.0942 330.32 99.2736C331.421 101.845 332.606 104.509 334.717 106.33C337.616 108.81 338.268 112.319 340.946 115.036C344.135 118.266 344.032 123.597 342.39 127.826C342.118 128.361 341.987 128.956 342.009 129.556C342.164 130.168 342.49 130.723 342.95 131.156L344.691 133.122C342.612 133.57 340.442 133.33 338.511 132.436C336.58 131.543 334.993 130.045 333.989 128.169C333.395 126.999 333.002 125.654 331.989 124.823C331.082 124.081 329.859 123.901 328.731 123.566C325.009 122.465 321.873 119.063 321.766 115.184C321.713 113.363 322.281 111.534 322.026 109.728C321.873 108.716 321.466 107.76 320.844 106.947C319.865 105.674 318.398 104.81 317.606 103.415C316.265 101.049 317.282 97.9706 316.314 95.414C316.017 94.652 315.423 93.8558 314.592 93.7948C313.762 93.7338 313.045 94.4273 312.253 94.7359C310.592 95.3798 308.801 94.2825 307.418 93.1623C306.035 92.0422 304.469 90.7658 302.709 91.0173C301.543 91.1811 300.625 91.9736 299.55 92.3851C298.758 92.6899 297.15 92.9642 296.453 92.2936C294.994 90.8916 298.388 87.394 299.013 86.1405Z" fill="#591D4B"/>
<path opacity="0.1" d="M334.98 126.999C334.389 125.829 333.997 124.484 332.983 123.65C332.077 122.907 330.85 122.728 329.726 122.396C326.003 121.295 322.868 117.893 322.761 114.014C322.704 112.189 323.275 110.364 323.016 108.558C322.87 107.534 322.462 106.564 321.831 105.743C320.856 104.47 319.385 103.602 318.597 102.207C317.252 99.8411 318.273 96.7627 317.305 94.2061C317.008 93.4441 316.414 92.6478 315.583 92.5869C314.752 92.5259 314.036 93.2155 313.244 93.5241C311.582 94.1718 309.788 93.0746 308.409 91.9544C307.03 90.8343 305.46 89.5579 303.696 89.8056C302.553 89.9694 301.616 90.7619 300.541 91.1772C299.749 91.482 298.141 91.7563 297.444 91.0857C295.984 89.676 299.379 86.1785 299.992 84.9288C300.499 83.8963 300.754 82.7418 301.356 81.7665L301.459 81.6064C301.011 81.9858 300.625 82.4332 300.316 82.9323C299.707 83.9077 299.455 85.0621 298.952 86.0946C298.339 87.3481 294.944 90.8457 296.403 92.2516C297.097 92.9222 298.689 92.6326 299.501 92.3431C300.572 91.9316 301.49 91.1391 302.656 90.9714C304.416 90.7238 305.982 92.0001 307.365 93.1203C308.748 94.2404 310.542 95.3377 312.2 94.6938C312.996 94.3852 313.689 93.688 314.539 93.7527C315.389 93.8175 315.968 94.591 316.265 95.372C317.233 97.9133 316.212 100.992 317.553 103.373C318.345 104.764 319.816 105.632 320.791 106.905C321.422 107.726 321.83 108.696 321.976 109.72C322.235 111.526 321.664 113.351 321.721 115.176C321.839 119.059 324.963 122.461 328.686 123.558C329.81 123.89 331.036 124.069 331.943 124.816C332.957 125.646 333.345 126.991 333.94 128.161C334.944 130.037 336.531 131.535 338.462 132.428C340.393 133.322 342.562 133.563 344.642 133.114L343.823 132.184C340.226 132.245 336.61 130.211 334.98 126.999Z" fill="black"/>
<path opacity="0.1" d="M310.565 110.833C310.1 111.526 308.775 115.169 307.666 118.331C306.63 117.931 305.685 115.355 305.685 115.355L311.205 107.488C311.784 108.265 311.411 109.56 310.565 110.833Z" fill="black"/>
<path d="M310.775 110.62C310.314 111.313 308.988 114.955 307.875 118.122C306.839 117.722 305.898 115.146 305.898 115.146L311.43 107.278C311.998 108.052 311.624 109.347 310.775 110.62Z" fill="#DCE7FF"/>
<path d="M278.614 146.8L275.547 137.141C275.51 137.028 275.497 136.908 275.506 136.789C275.516 136.67 275.549 136.554 275.603 136.448C275.658 136.342 275.733 136.247 275.824 136.17C275.915 136.093 276.02 136.035 276.134 135.998C276.248 135.96 276.367 135.946 276.487 135.955C276.606 135.964 276.722 135.997 276.829 136.051C276.935 136.106 277.03 136.181 277.107 136.273C277.184 136.365 277.242 136.471 277.277 136.585L280.344 146.251L280.039 148.274L278.614 146.8Z" fill="#BE8B87"/>
<path opacity="0.1" d="M275.837 136.284C275.951 136.247 276.071 136.234 276.19 136.243C276.309 136.253 276.425 136.287 276.531 136.342C276.638 136.396 276.732 136.472 276.809 136.563C276.886 136.655 276.944 136.761 276.98 136.875L280.047 146.533L279.815 148.057L280.039 148.289L280.344 146.266L277.277 136.608C277.242 136.494 277.184 136.388 277.107 136.296C277.03 136.204 276.936 136.129 276.829 136.074C276.723 136.02 276.606 135.987 276.487 135.978C276.368 135.969 276.248 135.983 276.134 136.021C275.943 136.08 275.778 136.203 275.666 136.368C275.719 136.334 275.777 136.306 275.837 136.284Z" fill="white"/>
<path d="M278.614 146.8L280.337 146.251L280.085 147.912L280.032 148.274L279.529 147.748L278.614 146.8Z" fill="#EFC8C4"/>
<path d="M279.529 147.748C279.56 147.712 279.598 147.681 279.639 147.657C279.664 147.642 279.692 147.634 279.721 147.634C279.75 147.634 279.779 147.642 279.803 147.657C279.828 147.686 279.849 147.718 279.864 147.752C279.887 147.792 279.919 147.827 279.957 147.852C279.996 147.878 280.039 147.895 280.085 147.901L280.032 148.282L279.529 147.748Z" fill="#727A9C"/>
<path d="M275.532 140.563C275.532 140.563 281.685 140.528 280.234 143.142C278.782 145.756 276.523 146.076 276.523 146.076L275.532 140.563Z" fill="#FFB0B1"/>
</g>
<defs>
<linearGradient id="paint0_linear" x1="303.7" y1="276.554" x2="303.7" y2="77.534" gradientUnits="userSpaceOnUse">
<stop stop-color="#808080" stop-opacity="0.25"/>
<stop offset="0.54" stop-color="#808080" stop-opacity="0.12"/>
<stop offset="1" stop-color="#808080" stop-opacity="0.1"/>
</linearGradient>
<clipPath id="clip0">
<rect width="376.284" height="300" fill="white"/>
</clipPath>
</defs>
</svg>
