<svg width="368" height="300" viewBox="0 0 368 300" fill="none" xmlns="http://www.w3.org/2000/svg">
<g clip-path="url(#clip0)">
<path opacity="0.1" d="M358.264 173.908C358.264 174.136 358.264 174.363 358.264 174.588C358.224 178.518 357.992 182.438 357.566 186.348C357.568 186.372 357.568 186.395 357.566 186.419C357.532 186.744 357.495 187.065 357.457 187.39C357.394 187.94 357.327 188.485 357.252 189.034C356.381 195.719 354.94 202.317 352.944 208.756C350.271 217.457 346.492 225.778 341.699 233.517C340.225 235.883 338.655 238.173 336.989 240.387C336.099 241.56 335.192 242.707 334.254 243.835C333.596 244.625 332.926 245.402 332.244 246.166L331.818 246.637C328.228 250.58 324.357 254.258 320.237 257.643C313.512 263.217 306.272 268.066 298.917 272.564C298.498 272.822 298.076 273.076 297.654 273.311C297.624 273.333 297.593 273.351 297.56 273.367C287.563 279.412 277.196 284.866 266.516 289.233C254.822 294.026 242.748 297.512 230.36 299.036C213.093 301.158 195.617 299.432 178.454 296.466C164.18 294.013 150.08 290.644 136.239 286.379L133.96 285.666C132.78 285.29 131.6 284.906 130.422 284.515C123.307 282.161 116.271 279.546 109.315 276.67C91.844 269.474 75.154 260.513 59.5046 249.925C57.5121 248.585 55.5483 247.215 53.6131 245.815C50.9084 243.868 48.236 241.863 45.596 239.801L43.9672 238.538C37.0583 233.128 30.5853 227.183 24.608 220.759C16.5684 212.01 9.69822 202.139 5.18158 190.872C4.46927 189.101 3.81675 187.297 3.22399 185.459L3.16795 185.276C2.86908 184.342 2.59263 183.408 2.33859 182.437C1.96501 181.047 1.6375 179.64 1.35607 178.215C1.29629 177.942 1.24399 177.67 1.19542 177.393C0.302513 172.599 -0.0918523 167.725 0.0186304 162.85C0.112066 158.578 0.612442 154.325 1.51297 150.148C2.43469 145.818 3.85507 141.609 5.74569 137.606C7.45425 134.007 9.63118 130.649 12.2199 127.621C14.039 125.503 16.0848 123.591 18.3206 121.92C22.374 118.901 26.8682 116.798 31.5268 115.135C33.716 114.351 35.9351 113.663 38.1654 113.025C39.7457 112.569 41.3334 112.135 42.9137 111.71L47.576 110.451C50.5647 109.636 53.5534 108.799 56.4972 107.895C64.5218 105.444 72.3858 102.478 79.6595 98.055C80.8101 97.3564 81.9832 96.5905 83.1562 95.7686C84.6506 94.7301 86.1225 93.6019 87.5795 92.384C89.0514 91.1511 90.4934 89.8324 91.8682 88.4352C92.0812 88.2185 92.2904 88.0018 92.4996 87.7814C93.6204 86.6009 94.7075 85.3643 95.7162 84.0792C96.2093 83.4515 96.6875 82.8127 97.1433 82.1627C97.7746 81.2623 98.3724 80.3471 98.9253 79.4056C101.697 74.6984 103.408 69.5056 103.207 64.0326C103.177 63.1308 103.096 62.2315 102.964 61.339C102.478 58.0403 102.011 54.82 101.667 51.6707C100.225 38.6438 100.834 26.831 110.611 15.7318C122.767 1.9353 141.846 -0.8778 159.214 0.224276C209.428 3.39975 255.14 32.0687 295.311 66.1994C298.786 69.1482 302.218 72.1369 305.607 75.1654C306.462 75.9275 307.317 76.6946 308.174 77.4667C314.525 83.1863 320.779 89.1188 326.603 95.4735C327.074 95.9891 327.544 96.5046 328.008 97.0239C328.292 97.3452 328.579 97.6627 328.859 97.9877C330.675 100.042 332.437 102.147 334.146 104.301C338.722 110.021 342.764 116.148 346.22 122.607C351.511 132.743 355.093 143.683 356.822 154.986C357.472 159.09 357.9 163.227 358.104 167.377C358.167 168.599 358.208 169.824 358.231 171.046C358.231 171.438 358.231 171.827 358.231 172.219C358.268 172.787 358.268 173.34 358.264 173.908Z" fill="#AB00EA"/>
<path d="M147.185 167.643L141.208 274.036L147.185 274.115L152.042 166.148L147.185 167.643Z" fill="#3F3D56"/>
<path d="M125.144 221.547H51.1737V237.612H125.144V221.547Z" fill="#AB00EA"/>
<path d="M130 235.74V245.827H53.5907C50.886 243.879 48.2136 241.874 45.5736 239.812V235.74H130Z" fill="#3F3D56"/>
<path d="M145.257 212.783C145.048 213.751 144.775 214.707 144.488 215.66C143.64 218.413 142.62 221.129 142.422 223.991C142.157 227.771 143.169 232.168 140.554 234.914C139.881 235.624 139.004 236.155 138.402 236.913C138.309 237.032 138.225 237.157 138.148 237.287C137.61 238.176 137.547 239.259 137.539 240.275C137.545 242.442 137.686 244.607 137.961 246.757C138.847 254.154 140.595 261.566 138.297 268.548C137.881 269.759 137.396 270.945 136.844 272.101C135.723 274.567 134.502 276.999 134.136 279.67C133.867 281.65 133.949 283.689 133.934 285.703C132.753 285.327 131.574 284.943 130.396 284.552C123.281 282.199 116.245 279.584 109.289 276.707C109.307 276.606 109.326 276.502 109.341 276.401C109.875 273.076 109.143 269.676 108.254 266.434C106.386 259.563 103.741 252.76 102.175 245.842C101.545 243.139 101.132 240.391 100.939 237.623C100.894 237.003 100.868 236.379 100.864 235.755C100.846 234.94 100.864 234.126 100.898 233.304C100.976 231.664 101.047 229.718 99.736 228.72C99.015 228.178 98.0623 228.085 97.2218 227.756C95.6004 227.125 94.4909 225.661 93.2057 224.487C92.5927 223.893 91.8442 223.456 91.0247 223.215C90.2053 222.975 89.3396 222.937 88.5023 223.105C80.1041 225.029 73.9325 232.153 66.1171 235.755C65.8145 235.897 65.5119 236.031 65.2055 236.158C64.1946 236.528 63.2324 237.02 62.3401 237.623C61.7132 238.058 61.2584 238.699 61.055 239.435C60.857 240.227 61.0288 241.056 61.126 241.87C61.2832 243.195 61.2264 244.535 60.9579 245.842C60.8566 246.348 60.723 246.847 60.5581 247.336C60.2593 248.221 59.8595 249.088 59.4785 249.951C57.486 248.611 55.5222 247.241 53.587 245.842C50.8823 243.894 48.2099 241.889 45.5699 239.827L43.9672 238.538C37.0583 233.128 30.5853 227.183 24.608 220.759C25.4038 218.518 26.5544 216.433 27.1073 214.135C27.4211 212.817 27.5369 211.446 27.9703 210.164C28.47 208.836 29.1651 207.589 30.0325 206.466C33.2093 202.036 37.0883 198.154 41.5165 194.974C46.1452 191.657 51.4912 188.997 55.6567 185.231C57.3471 183.751 58.8043 182.024 59.9791 180.109C60.0501 179.993 60.1173 179.87 60.1771 179.736C60.5022 179.06 60.7275 178.34 60.8458 177.599C61.1447 175.925 61.0998 174.087 61.2493 172.481C66.3236 173.359 71.4967 173.515 76.6148 172.944C82.5735 172.275 88.4014 170.62 94.3601 169.978C94.8084 169.925 95.2604 169.884 95.7125 169.847C97.6215 169.694 99.5342 169.66 101.451 169.683C103.053 169.683 104.656 169.754 106.259 169.806L123.903 170.404C125.857 170.471 127.852 170.546 129.671 171.259C131.831 172.107 133.56 173.796 134.946 175.652C135.122 175.892 135.298 176.131 135.462 176.377C136.602 178.041 137.517 179.849 138.182 181.753C138.253 181.947 138.32 182.127 138.383 182.34C138.551 182.859 138.697 183.382 138.828 183.912C138.929 184.327 139.018 184.742 139.101 185.16C139.512 187.23 139.754 189.344 140.404 191.343C140.449 191.489 140.498 191.634 140.55 191.776C141.331 193.966 142.627 195.927 143.606 198.03C144.312 199.553 144.85 201.147 145.213 202.786C145.944 206.077 145.96 209.486 145.257 212.783Z" fill="#35323E"/>
<path d="M91.6256 79.0881C90.049 77.8329 87.7627 78.7519 85.9172 79.5626C84.3699 80.246 82.7771 80.8214 81.1502 81.2848C80.8173 81.4129 80.4563 81.4503 80.1042 81.3931C79.357 81.2138 79.0432 80.3284 78.4866 79.7905C77.519 78.8602 75.935 79.0806 74.6872 79.585C73.4395 80.0893 72.2066 80.8178 70.8692 80.7057C69.4421 80.5937 68.2018 79.5402 66.7598 79.5065C64.2194 79.4468 62.0862 82.5774 59.6841 81.748C58.2196 81.2437 57.069 79.3384 55.6269 79.8801C54.5062 80.306 54.4053 81.8564 53.7291 82.8688C52.9334 84.0493 51.383 84.3818 50.0568 84.9048C45.8763 86.5561 43.1081 91.2147 43.6535 95.6753C43.9561 98.1372 45.1479 100.394 45.9361 102.744C48.2748 109.576 47.4716 117.283 50.4191 123.873C50.7927 123.522 51.0019 123.392 51.3643 123.044C50.4323 124.977 50.2526 127.188 50.86 129.246C51.1701 130.28 51.6744 131.244 52.0554 132.257C52.4513 133.392 52.7708 134.553 53.0118 135.731L56.262 150.069C57.5322 155.673 58.8061 161.277 59.0265 167.015C59.1638 170.746 58.878 174.481 58.1748 178.148C64.0625 177.173 69.4496 174.562 75.4157 174.595C77.6049 174.595 79.7755 174.969 81.946 175.268C88.2742 176.153 94.6575 176.586 101.047 176.564C102.041 176.62 103.036 176.481 103.976 176.153C104.798 175.802 105.471 175.178 106.248 174.726C107.768 173.829 109.61 173.605 111.362 173.605C119.353 173.459 127.053 176.385 134.991 177.416C138.126 170.837 138.313 162.954 135.907 156.077C135.193 154.033 134.233 152.042 133.949 149.894C133.835 148.573 133.805 147.247 133.859 145.922C133.847 142.532 133.236 139.171 132.055 135.993C131.592 134.749 131.035 133.482 131.084 132.156C131.132 130.83 131.786 129.593 132.429 128.42C133.732 126.029 135.044 123.616 136.885 121.598C138.772 119.514 141.133 117.926 143.468 116.368L149.232 112.498C148.444 107.518 147.428 102.273 145.317 97.6926C143.206 93.1125 140.05 88.9022 135.78 86.2236C134.34 85.3575 132.833 84.608 131.274 83.9821C129.092 83.0631 126.821 82.2524 124.456 82.1142C121.766 81.961 119.118 82.682 116.462 83.1303C108.101 84.5387 98.2604 84.3669 91.6256 79.0881Z" fill="#AB00EA"/>
<path d="M154.657 165.506L151.915 168.969L146.744 175.495L140.767 183.038L139.097 185.145H135.858L55.6529 185.238L5.42437 185.294H3.18286C2.88399 184.361 2.60753 183.427 2.3535 182.455C1.97991 181.065 1.6524 179.658 1.37097 178.234C1.3112 177.961 1.25889 177.688 1.21033 177.412L19.4338 165.498L26.2854 165.461L47.2435 165.341L58.9479 165.274H61.0848H62.426L70.2264 165.233L129.679 164.893L132.72 164.874H134.038L137.531 164.856L150.529 164.781L153.024 163.832L153.207 164.026L154.657 165.506Z" fill="#3F3D56"/>
<path d="M153.536 163.638L153.226 164.011L151.186 166.414L146.987 171.371L138.182 181.753L60.177 179.762L1.35607 178.267C1.29629 177.995 1.24399 177.722 1.19542 177.446C0.302513 172.651 -0.0918523 167.777 0.0186304 162.902L6.54142 159.562L8.03576 158.793L19.6655 152.815L29.8718 147.585L56.4935 151.044L62.3886 151.81L65.056 152.154L68.96 152.662L69.2888 152.707L130.508 160.645L137.274 161.523L141.245 162.039L153.484 163.63L153.536 163.638Z" fill="#504F60"/>
<path d="M140.834 181.57L140.771 183.038L140.397 191.328L138.387 236.905L137.961 246.757L136.84 272.101L136.209 286.416L133.93 285.703C132.75 285.327 131.57 284.943 130.392 284.552L135.858 185.179L135.974 183.094L138.38 182.347L140.834 181.57Z" fill="#3F3D56"/>
<path d="M5.59628 181.461L5.42817 185.298L5.18161 190.902C4.4693 189.131 3.81678 187.327 3.22402 185.489L3.16798 185.306C2.86911 184.372 2.59266 183.438 2.33862 182.466L5.59628 181.461Z" fill="#3F3D56"/>
<path d="M103.289 124.975C112.78 124.975 120.474 114.605 120.474 101.813C120.474 89.021 112.78 78.6509 103.289 78.6509C93.7978 78.6509 86.1039 89.021 86.1039 101.813C86.1039 114.605 93.7978 124.975 103.289 124.975Z" fill="#FBBEBE"/>
<path opacity="0.1" d="M103.289 124.975C112.78 124.975 120.474 114.605 120.474 101.813C120.474 89.021 112.78 78.6509 103.289 78.6509C93.7978 78.6509 86.1039 89.021 86.1039 101.813C86.1039 114.605 93.7978 124.975 103.289 124.975Z" fill="black"/>
<path d="M105.717 111.713C118.922 111.713 129.627 101.008 129.627 87.8035C129.627 74.5987 118.922 63.894 105.717 63.894C92.5122 63.894 81.8076 74.5987 81.8076 87.8035C81.8076 101.008 92.5122 111.713 105.717 111.713Z" fill="#FBBEBE"/>
<path d="M106.192 50.9535C104.732 51.0699 103.282 51.2908 101.854 51.6147C98.0736 52.5337 94.8047 54.5735 91.6218 56.5759C90.1947 57.4763 88.7265 58.414 87.8411 59.7365C86.2496 62.1087 86.866 65.1273 85.9732 67.7611C85.5099 69.1134 84.6581 70.3276 83.9371 71.5866C81.9534 75.0385 80.9148 78.8304 79.8949 82.5849C79.6857 83.362 79.6259 84.4155 80.474 84.7144C80.9623 84.8158 81.4703 84.7582 81.9235 84.55C84.6021 83.6646 88.0055 83.4105 89.9929 85.2075C91.9804 87.0044 91.8123 90.1911 94.1771 91.5584C96.8856 93.1387 101.115 91.2297 103.573 93.0939C104.626 93.8933 105.007 95.1747 105.87 96.1386C107.88 98.3801 111.747 98.2718 114.963 97.8197C116.809 97.5582 119.073 97.3826 120.194 98.679C120.731 99.2916 120.885 100.132 121.509 100.685C122.629 101.686 124.68 101.178 125.775 100.151C126.869 99.1235 127.393 97.7338 128.304 96.5794C130.079 94.3379 133.198 93.1163 135.029 90.9009C136.56 89.033 137.024 86.6944 137.442 84.4379L139 76.0733C139.631 72.6812 140.206 68.9752 138.297 65.9865C137.618 64.9106 136.642 63.9841 136.056 62.8708C135.664 62.1237 135.443 61.3354 134.988 60.6293C134.447 59.8938 133.801 59.2417 133.071 58.6942L129.384 55.642C128.123 54.5385 126.775 53.539 125.353 52.6533C120.089 49.5862 112.206 50.3931 106.192 50.9535Z" fill="#464353"/>
<path d="M27.4398 112.543C26.5544 113.484 25.7363 114.5 24.7874 115.382C23.9526 116.124 23.0798 116.823 22.1723 117.474C20.7078 118.57 19.2757 119.704 17.876 120.877C16.4158 122.032 15.0944 123.352 13.9385 124.811C11.9435 127.49 10.9984 130.822 9.13043 133.591C7.47918 136.045 5.15175 137.984 3.47435 140.42C2.73847 141.444 2.19189 142.591 1.86046 143.808C1.61308 144.986 1.50152 146.188 1.52797 147.391C1.49435 149.363 1.46446 151.358 1.86793 153.29C2.27141 155.221 3.1568 157.119 4.67356 158.385C6.08197 159.562 7.90133 160.104 9.68333 160.552C10.6024 160.78 11.5961 160.993 12.4703 160.631C13.11 160.308 13.6652 159.839 14.0916 159.263L18.6382 154.033C21.6791 150.521 24.8397 146.935 29.0126 144.88C30.3202 144.241 31.6987 143.76 33.01 143.139C38.5689 140.461 42.499 134.977 44.0233 128.999C44.3969 127.538 44.6359 126.048 44.8788 124.557L45.5363 120.47C45.5868 120.265 45.5868 120.051 45.5363 119.846C45.4333 119.616 45.2676 119.419 45.0581 119.278C41.8913 116.721 38.9262 113.923 36.1892 110.91C35.5392 110.193 34.9302 109.21 34.1793 108.609C33.2379 107.862 33.3088 107.918 32.1769 108.609C30.4356 109.711 28.8435 111.034 27.4398 112.543Z" fill="#FBBEBE"/>
<path d="M58.5407 139.74C58.5029 139.653 58.448 139.575 58.3792 139.51C58.3104 139.445 58.2291 139.394 58.1404 139.361C58.0516 139.329 57.9571 139.314 57.8626 139.319C57.768 139.323 57.6754 139.347 57.5902 139.388C57.5051 139.43 57.4292 139.488 57.367 139.559C57.3049 139.631 57.2578 139.714 57.2287 139.804C57.1995 139.894 57.1888 139.989 57.1973 140.083C57.2058 140.177 57.2332 140.269 57.278 140.352L56.9044 140.535L68.0447 163.369L70.0583 162.386L58.918 139.538L58.5407 139.74Z" fill="#3F3D56"/>
<path opacity="0.04" d="M27.4398 112.543C26.5544 113.484 25.7363 114.5 24.7874 115.382C23.9526 116.124 23.0798 116.823 22.1723 117.474C20.7078 118.57 19.2757 119.704 17.876 120.877C16.4158 122.032 15.0944 123.352 13.9385 124.811C11.9435 127.49 10.9984 130.822 9.13043 133.591C7.47918 136.045 5.15175 137.984 3.47435 140.42C2.73847 141.444 2.19189 142.591 1.86046 143.808C1.61308 144.986 1.50152 146.188 1.52797 147.391C1.49435 149.363 1.46446 151.358 1.86793 153.29C2.27141 155.221 3.1568 157.119 4.67356 158.385C6.08197 159.562 7.90133 160.104 9.68333 160.552C10.6024 160.78 11.5961 160.993 12.4703 160.631C13.11 160.308 13.6652 159.839 14.0916 159.263L18.6382 154.033C21.6791 150.521 24.8397 146.935 29.0126 144.88C30.3202 144.241 31.6987 143.76 33.01 143.139C38.5689 140.461 42.499 134.977 44.0233 128.999C44.3969 127.538 44.6359 126.048 44.8788 124.557L45.5363 120.47C45.5868 120.265 45.5868 120.051 45.5363 119.846C45.4333 119.616 45.2676 119.419 45.0581 119.278C41.8913 116.721 38.9262 113.923 36.1892 110.91C35.5392 110.193 34.9302 109.21 34.1793 108.609C33.2379 107.862 33.3088 107.918 32.1769 108.609C30.4356 109.711 28.8435 111.034 27.4398 112.543Z" fill="black"/>
<path d="M156.23 154.623C156.192 157.007 156.099 159.461 155.109 161.635C154.683 162.577 154.022 163.503 153.032 163.813C152.432 163.952 151.812 163.975 151.205 163.881C143.875 163.236 136.49 163.822 129.354 165.614C131.259 161.804 130.164 157.235 130.691 153.006C130.837 151.851 131.102 150.716 131.203 149.557C131.577 145.448 129.817 141.458 129.01 137.401C128.31 133.889 128.31 130.273 129.01 126.761C129.148 125.857 129.458 124.988 129.925 124.202C130.473 123.437 131.192 122.812 132.025 122.375C135.051 120.653 138.619 120.455 142.018 120.683C144.308 120.836 148.9 120.62 150.809 122.028C152.897 123.571 153.558 128.752 154.122 131.147C154.967 134.82 155.542 138.549 155.841 142.306C156.207 146.401 156.286 150.514 156.23 154.623Z" fill="#FBBEBE"/>
<path d="M22.4076 162.894L35.8567 171.86L96.3774 169.619L56.4038 162.894H22.4076Z" fill="white"/>
<path d="M40.1417 91.6552C37.9339 93.6015 36.0622 95.8954 33.9701 97.9688C31.101 100.815 27.8396 103.236 24.5931 105.646C25.7571 105.971 26.8167 106.593 27.668 107.451C28.5194 108.309 29.1333 109.373 29.4497 110.54C29.5917 111.089 29.6627 111.661 29.8233 112.199C30.1969 113.473 31.0188 114.571 31.9005 115.561C35.6886 119.831 40.9898 122.991 43.2238 128.263C43.2967 128.519 43.4548 128.743 43.6721 128.898C43.8539 128.978 44.0558 129.002 44.2512 128.965C46.2723 128.752 47.8189 127.123 49.1078 125.539C51.7976 122.177 54.1325 118.464 55.4587 114.362C56.7849 110.26 56.9979 105.724 55.5521 101.66C54.8311 99.6349 53.7178 97.7745 52.612 95.9327C51.6432 94.3213 50.6768 92.7124 49.713 91.106C49.2086 90.2579 48.5661 88.5357 47.5761 88.1173C45.4392 87.1983 41.5128 90.2841 40.1417 91.6552Z" fill="#AB00EA"/>
<path d="M150.177 115.8L153.357 123.272C149.896 122.063 146.197 121.695 142.565 122.198C138.934 122.701 135.475 124.062 132.473 126.167C130.661 127.464 128.999 129.092 128.181 131.162C127.777 131.239 127.36 131.2 126.977 131.05C126.594 130.9 126.262 130.645 126.018 130.314C125.54 129.643 125.262 128.85 125.218 128.028C124.923 125.159 126.01 122.345 127.086 119.663C127.587 118.408 128.102 117.126 128.991 116.107C129.881 115.087 131.061 114.414 132.242 113.779C136.008 111.696 139.952 109.953 144.028 108.571C145.747 108.015 147.547 108.026 148.511 109.632C149.628 111.549 149.303 113.76 150.177 115.8Z" fill="#AB00EA"/>
<path d="M22.4861 138.219C23.2818 138.854 23.9804 139.605 24.7985 140.21C25.6638 140.811 26.5845 141.328 27.5481 141.753L31.2317 143.524C32.3732 144.117 33.5676 144.602 34.7994 144.973C36.3759 145.395 38.0309 145.437 39.6149 145.829C41.6136 146.322 43.4404 147.349 45.4092 147.943C47.378 148.537 49.683 148.634 51.3268 147.398C52.3542 146.625 53.1312 145.347 54.4052 145.156C55.2271 145.048 56.0191 145.444 56.7513 145.829L66.3375 150.868C67.6301 151.548 68.9974 152.303 69.6736 153.599C70.3498 154.896 69.894 156.864 68.4706 157.201C67.9746 157.258 67.4756 157.286 66.9763 157.287C66.4832 157.346 65.9452 157.638 65.878 158.135C65.8755 158.443 65.9568 158.747 66.1133 159.013C66.5429 159.999 66.67 161.179 66.1694 162.136C65.6688 163.092 64.4397 163.686 63.4571 163.257C63.6252 164.702 62.0524 165.715 60.6515 166.1C57.1174 167.067 53.3703 166.473 49.7578 165.86C48.3381 165.621 46.8961 165.375 45.6035 164.74C44.9833 164.437 44.408 164.049 43.7804 163.768C42.0582 163.002 40.1006 163.103 38.2177 163.137C29.5095 163.29 20.8759 161.676 12.3133 160.07C10.7256 159.771 9.09304 159.453 7.73692 158.576C5.12183 156.872 4.15051 153.375 4.58013 150.282C5.00976 147.189 6.57881 144.387 8.12172 141.667L10.1204 138.144C10.3817 137.604 10.7474 137.122 11.1963 136.725C14.1364 134.479 19.9681 136.194 22.4861 138.219Z" fill="#FBBEBE"/>
<path opacity="0.04" d="M22.4861 138.219C23.2818 138.854 23.9804 139.605 24.7985 140.21C25.6638 140.811 26.5845 141.328 27.5481 141.753L31.2317 143.524C32.3732 144.117 33.5676 144.602 34.7994 144.973C36.3759 145.395 38.0309 145.437 39.6149 145.829C41.6136 146.322 43.4404 147.349 45.4092 147.943C47.378 148.537 49.683 148.634 51.3268 147.398C52.3542 146.625 53.1312 145.347 54.4052 145.156C55.2271 145.048 56.0191 145.444 56.7513 145.829L66.3375 150.868C67.6301 151.548 68.9974 152.303 69.6736 153.599C70.3498 154.896 69.894 156.864 68.4706 157.201C67.9746 157.258 67.4756 157.286 66.9763 157.287C66.4832 157.346 65.9452 157.638 65.878 158.135C65.8755 158.443 65.9568 158.747 66.1133 159.013C66.5429 159.999 66.67 161.179 66.1694 162.136C65.6688 163.092 64.4397 163.686 63.4571 163.257C63.6252 164.702 62.0524 165.715 60.6515 166.1C57.1174 167.067 53.3703 166.473 49.7578 165.86C48.3381 165.621 46.8961 165.375 45.6035 164.74C44.9833 164.437 44.408 164.049 43.7804 163.768C42.0582 163.002 40.1006 163.103 38.2177 163.137C29.5095 163.29 20.8759 161.676 12.3133 160.07C10.7256 159.771 9.09304 159.453 7.73692 158.576C5.12183 156.872 4.15051 153.375 4.58013 150.282C5.00976 147.189 6.57881 144.387 8.12172 141.667L10.1204 138.144C10.3817 137.604 10.7474 137.122 11.1963 136.725C14.1364 134.479 19.9681 136.194 22.4861 138.219Z" fill="black"/>
<path d="M136.527 144.674C134.58 145.594 132.346 145.683 130.314 146.389C128.282 147.095 126.556 148.366 124.691 149.4C119.835 152.113 114.231 153.136 108.728 154.111C105.392 154.709 102.004 155.307 98.6414 155.165C94.0911 154.97 89.7202 153.454 85.3119 152.311C80.9036 151.167 76.2001 150.398 71.8329 151.683C69.5524 152.377 67.4676 153.599 65.7476 155.25C64.0275 156.901 62.7206 158.933 61.9329 161.183C61.0176 163.869 60.8906 166.765 61.0662 169.596C61.9852 170.273 63.2704 169.335 63.771 168.307C64.2716 167.28 64.5443 166.021 65.5156 165.423C67.2005 165.995 67.6114 168.24 69.0012 169.35C69.8679 170.045 71.026 170.228 72.1281 170.385L77.8066 171.192C79.1739 171.386 80.7616 171.517 81.7516 170.553C82.2335 170.086 82.4988 169.432 82.9396 168.931C83.8437 167.93 85.353 167.758 86.6979 167.893C90.897 168.311 94.8346 171.035 99.0038 170.388C100.438 170.168 101.772 169.555 103.139 169.073C111.242 166.212 120.246 167.953 128.678 166.313C131.894 165.689 134.991 164.583 138.051 163.417C139.713 162.786 141.394 162.125 142.814 161.056C144.159 160.022 145.22 158.664 145.897 157.108C146.573 155.552 146.845 153.85 146.684 152.161C146.372 149.587 145.087 147.23 143.094 145.571C142.437 145.011 141.574 143.939 140.786 143.587C139.28 142.926 137.804 144.073 136.527 144.674Z" fill="#FBBEBE"/>
<g opacity="0.1">
<path opacity="0.1" d="M125.61 96.949C124.987 96.3961 124.833 95.5556 124.295 94.9429C123.175 93.6465 120.911 93.8221 119.065 94.0836C115.849 94.5357 111.967 94.6403 109.972 92.4025C109.109 91.4386 108.728 90.161 107.675 89.3578C105.216 87.4899 100.987 89.4026 98.279 87.8223C95.9142 86.4438 96.0673 83.2459 94.0948 81.4714C92.1223 79.6969 88.704 79.9285 86.0254 80.8139C85.5722 81.0221 85.0642 81.0797 84.5759 80.9783C83.7278 80.6794 83.7876 79.6259 83.9968 78.8488C85.0167 75.0943 86.0552 71.3024 88.039 67.8505C88.76 66.5915 89.6118 65.3773 90.075 64.025C90.8857 61.6564 90.471 58.9778 91.5357 56.7363C90.3926 57.4835 89.2942 58.2979 88.5882 59.3514C86.9967 61.7237 87.6131 64.7423 86.7202 67.376C86.257 68.7284 85.4052 69.9426 84.6842 71.2015C82.7005 74.6535 81.6619 78.4454 80.642 82.1999C80.4328 82.9769 80.373 84.0305 81.2211 84.3293C81.7094 84.4307 82.2174 84.3731 82.6706 84.1649C85.3492 83.2795 88.7525 83.0255 90.74 84.8225C92.7275 86.6194 92.5594 89.8061 94.9242 91.1734C97.6327 92.7537 101.862 90.8446 104.32 92.7088C105.373 93.5083 105.754 94.7897 106.617 95.7536C108.627 97.9951 112.494 97.8867 115.71 97.4347C117.556 97.1732 119.82 96.9976 120.941 98.2939C121.479 98.9066 121.632 99.7472 122.256 100.3C123.376 101.301 125.427 100.793 126.522 99.7659C127.224 99.035 127.824 98.2132 128.308 97.3226C127.336 97.6177 126.302 97.5729 125.61 96.949Z" fill="black"/>
<path opacity="0.1" d="M132.417 92.8394C132.177 93.1493 131.953 93.4723 131.748 93.807C133.183 92.7834 134.703 91.827 135.776 90.5232C136.054 90.1858 136.304 89.8259 136.523 89.4473C135.032 90.5157 133.478 91.4982 132.417 92.8394Z" fill="black"/>
</g>
<path d="M207.893 166.817L209.013 274.036L214.243 273.289L213.123 166.817H207.893Z" fill="#3F3D56"/>
<path d="M239.274 186.243L240.395 293.462L245.625 292.715L244.504 186.243H239.274Z" fill="#3F3D56"/>
<path d="M336.977 240.406L336.955 238.347V237.122L336.757 218.263L336.447 188.78L336.395 186.236H331.164L331.19 188.687L331.355 204.478L331.426 211.315L331.486 216.851L331.583 226.422L331.643 232.067V232.665L331.721 240.084L331.788 246.626L332.214 246.155C332.899 245.391 333.569 244.613 334.224 243.824L336.977 240.406Z" fill="#3F3D56"/>
<path d="M233.483 203.615L230.495 208.083L233.483 228.44L258.887 235.392H299.981L324.638 236.883L336.383 228.843L334.351 215.036L325.385 203.615H233.483Z" fill="#AB00EA"/>
<path d="M230.495 208.083L229 220.494C229 220.494 221.155 244.825 284.291 243.335C347.427 241.844 336.593 236.879 336.593 236.879L336.219 222.481C336.219 222.481 338.42 229.295 306.332 228.372C274.245 227.45 244.317 224.468 244.317 224.468C244.317 224.468 233.11 226.452 230.495 208.083Z" fill="#3F3D56"/>
<path d="M283.095 96.8442C279.494 98.4842 276.767 101.663 274.94 105.179C273.113 108.694 272.086 112.553 271.073 116.386C270.005 120.429 268.933 124.482 268.38 128.625C267.393 135.992 268.133 143.737 271.518 150.353C274.903 156.969 281.156 162.308 288.479 163.581C291.307 164.078 294.213 163.977 297.071 163.682C302.237 163.135 307.325 162.014 312.242 160.339C317.379 158.602 322.725 155.927 325.011 150.999C326.338 148.141 326.45 144.884 326.386 141.738C326.21 133.164 324.915 124.651 322.535 116.413C321.843 114.022 321.04 111.612 319.576 109.598C318.111 107.585 316.109 106.109 314.065 104.742C305.327 98.8578 293.843 91.9577 283.095 96.8442Z" fill="#FBBEBE"/>
<path opacity="0.05" d="M283.095 96.8442C279.494 98.4842 276.767 101.663 274.94 105.179C273.113 108.694 272.086 112.553 271.073 116.386C270.005 120.429 268.933 124.482 268.38 128.625C267.393 135.992 268.133 143.737 271.518 150.353C274.903 156.969 281.156 162.308 288.479 163.581C291.307 164.078 294.213 163.977 297.071 163.682C302.237 163.135 307.325 162.014 312.242 160.339C317.379 158.602 322.725 155.927 325.011 150.999C326.338 148.141 326.45 144.884 326.386 141.738C326.21 133.164 324.915 124.651 322.535 116.413C321.843 114.022 321.04 111.612 319.576 109.598C318.111 107.585 316.109 106.109 314.065 104.742C305.327 98.8578 293.843 91.9577 283.095 96.8442Z" fill="black"/>
<path d="M279.049 143.867C280.092 145.3 281.352 146.561 282.785 147.603C286.342 150.061 290.907 150.394 295.225 150.528C298.692 150.633 302.667 150.435 304.842 147.73C305.82 146.512 306.261 144.958 306.657 143.445C309.101 134.154 310.837 124.692 311.85 115.139L321.743 115.172C326.024 133.504 325.673 152.561 325.299 171.386L324.757 198.837L318.384 198.16C303.25 196.558 288.094 194.955 272.878 194.679C263.962 194.515 255.044 194.809 246.159 195.56L260.037 154.294C261.838 148.929 263.658 143.494 264.08 137.856C264.689 129.679 262.395 121.045 265.574 113.48C265.828 112.871 266.149 112.24 266.728 111.922C267.307 111.605 268.04 111.683 268.705 111.769C269.96 111.937 273.797 111.769 274.708 112.572C276.053 113.738 275.164 113.913 274.689 115.792C273.841 119.155 273.038 122.267 273.049 125.771C273.061 132.133 275.033 138.85 279.049 143.867Z" fill="#AB00EA"/>
<path d="M336.977 240.406C338.644 238.194 340.214 235.904 341.688 233.536C340.941 231.937 340.119 230.375 339.465 228.743C338.464 226.24 337.889 223.587 337.321 220.953C337.127 220.057 336.934 219.16 336.742 218.264C334.65 208.509 332.685 198.617 332.278 188.728C332.24 187.906 332.217 187.084 332.207 186.262C332.207 186.143 332.207 186.027 332.207 185.889C332.207 184.988 332.207 184.088 332.207 183.191C332.252 180.95 332.394 178.69 332.651 176.441C332.7 176 332.756 175.559 332.816 175.118C332.816 175.021 332.838 174.928 332.853 174.831L358.257 173.904L360.394 173.826C361.862 173.773 363.416 173.691 364.626 172.858C366.662 171.461 366.902 168.595 366.868 166.134C366.744 159.911 366.039 153.714 364.761 147.622C363.797 143.042 362.422 138.361 359.336 134.842C356.804 131.95 353.135 129.847 351.816 126.25C351.327 124.912 351.204 123.444 350.568 122.166C349.933 120.889 348.884 119.951 347.894 118.965C344.409 115.512 341.519 111.508 339.338 107.115C337.825 104.066 336.185 100.704 334.209 98.5968C334.112 98.4885 334.015 98.3876 333.914 98.2905C332.233 96.628 330.309 95.8995 328.03 97.0315C327.62 97.2371 327.23 97.4797 326.864 97.7562C326.052 98.3768 325.31 99.0832 324.649 99.8633C322.347 102.51 320.328 105.39 318.623 108.456C317.425 110.614 316.396 112.863 315.545 115.18C314.873 117.011 314.318 118.883 313.882 120.784C313.561 122.192 313.307 123.616 313.105 125.043C312.358 130.408 312.358 135.877 312.463 141.309C312.575 146.3 312.795 151.302 313.247 156.275C313.359 157.478 313.484 158.679 313.621 159.88C313.895 162.253 314.234 164.619 314.637 166.978C314.798 167.878 314.962 168.779 315.145 169.675C315.19 169.914 315.239 170.153 315.287 170.389L315.31 170.49C315.803 172.574 316.186 174.682 316.456 176.807C316.486 177.073 316.509 177.339 316.524 177.603C316.587 178.824 316.577 180.048 316.494 181.267C316.408 182.709 316.273 184.148 316.206 185.59C316.206 185.844 316.206 186.094 316.18 186.337C316.161 187.065 316.18 187.794 316.18 188.522C316.256 190.265 316.463 192 316.8 193.712C317.43 196.895 318.519 199.971 320.032 202.842C320.174 203.111 320.319 203.376 320.465 203.638C322.359 207.022 324.75 210.127 326.502 213.59C328.013 216.706 329.142 219.994 329.864 223.382C330.113 224.5 330.35 225.621 330.574 226.744C330.922 228.537 331.232 230.345 331.549 232.153C331.579 232.333 331.613 232.527 331.646 232.691C332.069 235.09 332.513 237.477 333.085 239.819C333.417 241.183 333.791 242.528 334.228 243.85L336.977 240.406Z" fill="#464353"/>
<path d="M331.986 210.96C331.986 211.296 331.964 211.632 331.949 211.972C331.882 213.611 331.731 215.246 331.497 216.87C331.187 219.086 330.645 221.264 329.879 223.366C329.372 224.749 328.726 226.077 327.952 227.33C327.265 228.443 326.461 229.479 325.553 230.42C323.312 232.751 320.084 233.494 316.961 234.477C315.524 234.893 314.135 235.46 312.818 236.169C312.582 236.3 312.351 236.442 312.126 236.591L308.219 239.18C307.001 239.983 305.757 240.816 304.92 242.008C304.783 242.211 304.658 242.422 304.546 242.64C304.018 243.737 303.631 244.897 303.396 246.091C301.363 254.557 299.327 263.03 297.934 271.622C297.841 272.19 297.751 272.762 297.654 273.333L297.62 273.513C297.603 273.47 297.583 273.429 297.56 273.389C287.563 279.434 277.196 284.888 266.515 289.256L264.196 269.829C263.954 268.25 263.874 266.65 263.956 265.055C264.177 262.54 265.2 260.157 265.477 257.65C265.739 255.196 265.275 252.719 264.143 250.526C263.702 249.674 263.149 248.837 263.049 247.885C262.948 246.932 263.497 246.062 264.453 245.964C265.2 245.135 265.26 244.003 265.04 242.882C264.923 242.297 264.748 241.725 264.517 241.175C263.882 239.614 263.079 237.914 263.624 236.319C263.768 236.029 263.833 235.707 263.811 235.385C263.815 235.365 263.815 235.345 263.811 235.325C263.684 234.906 263.187 234.723 262.929 234.368C262.443 233.707 262.929 232.807 263.228 232.045C263.519 231.226 263.687 230.369 263.729 229.501C263.77 229.019 263.8 228.533 263.852 228.055C263.925 227.408 264.041 226.766 264.199 226.135C265.107 222.556 267.289 219.431 270.337 217.348C271.791 216.369 273.408 215.656 274.891 214.733C276.411 213.709 277.861 212.585 279.232 211.371C282.522 208.631 285.943 206.048 289.495 203.622C293.314 201.014 297.269 198.612 301.345 196.427C302.217 195.956 303.088 195.498 303.96 195.052C304.909 194.554 305.864 194.082 306.825 193.636C309.904 192.168 313.397 192.717 316.8 193.696C318.227 194.103 319.636 194.589 320.995 195.03C322.323 195.462 323.601 196.035 324.806 196.741C327.821 198.512 330.313 201.127 331.347 204.429C331.349 204.45 331.349 204.472 331.347 204.493C332.005 206.562 332.046 208.782 331.986 210.96Z" fill="#F86D70"/>
<path opacity="0.1" d="M331.986 210.96C331.986 211.296 331.964 211.632 331.949 211.972C331.882 213.611 331.731 215.246 331.497 216.87C331.187 219.086 330.645 221.264 329.879 223.366C329.372 224.749 328.726 226.077 327.952 227.33C327.265 228.443 326.461 229.479 325.553 230.42C323.312 232.751 320.084 233.494 316.961 234.477C315.524 234.893 314.135 235.46 312.818 236.169C312.582 236.3 312.351 236.442 312.126 236.591L308.219 239.18C307.001 239.983 305.757 240.816 304.92 242.008C304.783 242.211 304.658 242.422 304.546 242.64C304.018 243.737 303.631 244.897 303.396 246.091C301.363 254.557 299.327 263.03 297.934 271.622C297.841 272.19 297.751 272.762 297.654 273.333L297.62 273.513C297.603 273.47 297.583 273.429 297.56 273.389C287.563 279.434 277.196 284.888 266.515 289.256L264.196 269.829C263.954 268.25 263.874 266.65 263.956 265.055C264.177 262.54 265.2 260.157 265.477 257.65C265.739 255.196 265.275 252.719 264.143 250.526C263.702 249.674 263.149 248.837 263.049 247.885C262.948 246.932 263.497 246.062 264.453 245.964C265.2 245.135 265.26 244.003 265.04 242.882C264.923 242.297 264.748 241.725 264.517 241.175C263.882 239.614 263.079 237.914 263.624 236.319C263.768 236.029 263.833 235.707 263.811 235.385C263.815 235.365 263.815 235.345 263.811 235.325C263.684 234.906 263.187 234.723 262.929 234.368C262.443 233.707 262.929 232.807 263.228 232.045C263.519 231.226 263.687 230.369 263.729 229.501C263.77 229.019 263.8 228.533 263.852 228.055C263.925 227.408 264.041 226.766 264.199 226.135C265.107 222.556 267.289 219.431 270.337 217.348C271.791 216.369 273.408 215.656 274.891 214.733C276.411 213.709 277.861 212.585 279.232 211.371C282.522 208.631 285.943 206.048 289.495 203.622C293.314 201.014 297.269 198.612 301.345 196.427C302.217 195.956 303.088 195.498 303.96 195.052C304.909 194.554 305.864 194.082 306.825 193.636C309.904 192.168 313.397 192.717 316.8 193.696C318.227 194.103 319.636 194.589 320.995 195.03C322.323 195.462 323.601 196.035 324.806 196.741C327.821 198.512 330.313 201.127 331.347 204.429C331.349 204.45 331.349 204.472 331.347 204.493C332.005 206.562 332.046 208.782 331.986 210.96Z" fill="black"/>
<path d="M296.514 149.079C296.477 148.992 296.422 148.914 296.353 148.849C296.284 148.784 296.203 148.734 296.114 148.701C296.025 148.668 295.931 148.653 295.836 148.658C295.742 148.663 295.649 148.686 295.564 148.728C295.479 148.769 295.403 148.827 295.341 148.898C295.279 148.97 295.232 149.053 295.202 149.143C295.173 149.233 295.163 149.328 295.171 149.422C295.18 149.517 295.207 149.608 295.252 149.692L294.878 149.875L306.018 172.708L308.032 171.726L296.892 148.877L296.514 149.079Z" fill="#3F3D56"/>
<path d="M310.442 125.162C323.647 125.162 334.351 114.458 334.351 101.253C334.351 88.0479 323.647 77.3433 310.442 77.3433C297.237 77.3433 286.532 88.0479 286.532 101.253C286.532 114.458 297.237 125.162 310.442 125.162Z" fill="#FBBEBE"/>
<path d="M341.998 86.4515C341.887 84.5509 341.604 82.6642 341.154 80.8141C339.749 74.7733 337.183 68.8258 332.763 64.4885C332.491 63.428 332.166 62.3819 331.788 61.3541C331.781 61.3286 331.773 61.3037 331.762 61.2794C330.444 57.6586 328.538 54.2797 326.121 51.2785C324.72 49.5376 322.904 47.8191 320.67 47.7519C320.043 47.7295 319.378 47.8378 318.803 47.5501C318.379 47.2766 318.023 46.9114 317.76 46.4817C316.654 45.0837 315.187 44.0145 313.517 43.3896C311.847 42.7648 310.038 42.6081 308.286 42.9364L308.054 42.9849C307.924 43.0111 307.793 43.041 307.681 43.0746C307.569 43.1082 307.367 43.1642 307.21 43.2128C307.382 43.4967 307.55 43.7844 307.714 44.0758C308.158 44.8653 308.569 45.6722 308.947 46.4966C309.261 47.184 309.551 47.8826 309.818 48.5924C305.992 49.0295 302.877 51.7455 300.03 54.3307L293.328 60.4127C293.316 60.4229 293.304 60.4342 293.294 60.4463L293.1 60.6331C293.051 60.6816 293.003 60.7302 292.958 60.7825C292.94 60.7981 292.924 60.8156 292.909 60.8348C292.853 60.8946 292.801 60.9581 292.749 61.0216C292.655 61.1393 292.572 61.2642 292.498 61.3952C292.462 61.4513 292.429 61.51 292.401 61.5708C292.391 61.5887 292.382 61.6074 292.375 61.6268C292.351 61.6778 292.33 61.7302 292.312 61.7837C292.31 61.7911 292.31 61.7987 292.312 61.8061C292.301 61.8368 292.292 61.8679 292.285 61.8995C292.209 62.1624 292.232 62.4441 292.349 62.6915L296.768 62.7401H297.288C297.31 63.3304 297.329 63.9244 297.351 64.5146C296.65 65.0395 295.977 65.6007 295.334 66.1958C294.633 66.8445 293.975 67.5383 293.365 68.2729C289.379 73.0884 287.298 79.3086 287.089 85.5699C287.089 85.7641 287.089 85.9435 287.089 86.1452C287.089 86.7168 287.089 87.2884 287.089 87.8562C287.089 88.2298 287.122 88.6034 287.152 88.977C287.154 89.4636 287.283 89.9413 287.526 90.363C287.558 90.4101 287.593 90.455 287.631 90.4975C287.855 90.7407 288.124 90.9386 288.423 91.0803L288.744 91.2372C288.904 91.3156 289.058 91.3903 289.207 91.4763C290.616 92.272 291.449 93.8074 292.73 94.7937C292.805 94.8497 292.879 94.9058 292.954 94.9543L293.122 95.0664L293.227 95.1337L293.369 95.2158C293.462 95.272 293.558 95.3231 293.656 95.369L293.836 95.4587H293.866C294.015 95.5259 294.165 95.5894 294.318 95.6455L294.531 95.7202L294.594 95.7426C294.654 95.7613 294.717 95.7837 294.781 95.7986C294.908 95.836 295.033 95.8696 295.155 95.8995L295.528 95.9817C295.674 96.0078 295.823 96.034 295.973 96.0527L296.193 96.0826L296.417 96.105C296.773 96.1373 297.132 96.156 297.493 96.161C298.627 96.154 299.758 96.0754 300.882 95.9257L310.416 94.8049C312.579 94.5546 314.786 94.3043 316.92 94.7451C318.728 95.1187 320.394 95.978 322.15 96.5869C322.546 96.7251 322.942 96.8521 323.342 96.9605C323.487 97.0016 323.637 97.0464 323.786 97.0838L323.992 97.1361L324.47 97.2519C324.642 97.293 324.814 97.3341 324.985 97.3677C325.228 97.42 325.467 97.4648 325.71 97.5097C325.874 97.5433 326.043 97.5694 326.211 97.5993H326.244L326.723 97.674H326.838L327.193 97.7226C327.365 97.7487 327.537 97.7712 327.713 97.7898C328.094 97.8372 328.475 97.8783 328.856 97.9131C329.472 97.9729 330.092 98.0177 330.724 98.0551L331.344 98.0924L331.964 98.1223L333.832 98.2045H333.914H334.176C334.952 98.2586 335.732 98.2185 336.499 98.085C336.634 98.0588 336.764 98.0289 336.895 97.9916C337.026 97.9542 337.134 97.9169 337.269 97.872C338.67 97.3341 339.693 96.0975 340.403 94.775C340.553 94.4948 340.691 94.2146 340.818 93.927C340.945 93.6393 341.061 93.3479 341.165 93.0565C341.296 92.6829 341.408 92.328 341.505 91.9544C341.535 91.8536 341.561 91.7527 341.584 91.6481C341.606 91.5435 341.658 91.338 341.688 91.1811C341.782 90.7515 341.853 90.3181 341.905 89.881C341.905 89.7428 341.939 89.6009 341.954 89.4626C341.987 89.089 342.013 88.7416 342.028 88.3755C342.028 88.099 342.028 87.8189 342.028 87.5387C342.025 87.2361 341.998 86.8363 341.998 86.4515ZM332.42 64.1485C332.117 63.8646 331.807 63.5919 331.493 63.3341C331.842 63.5545 332.154 63.8294 332.416 64.1485H332.42Z" fill="#464353"/>
<path d="M264.554 99.9375C261.741 99.5901 258.95 98.3572 256.175 98.9625C254.438 99.336 252.943 100.416 251.553 101.525C246.382 105.67 241.984 110.698 238.564 116.375C237.984 117.224 237.577 118.179 237.365 119.185C237.185 120.35 237.503 121.534 237.88 122.651C240.436 130.202 245.901 136.508 248.389 144.08C251.004 152.045 250.097 160.75 248.169 168.909C245.779 178.981 241.896 188.64 236.647 197.563C235.935 198.89 235.042 200.112 233.995 201.194C232.635 202.502 230.808 203.435 230.001 205.146C229.628 205.894 229.519 206.745 229.254 207.545C228.507 209.786 226.699 211.707 226.523 214.071C226.393 215.876 227.248 217.583 227.767 219.302C228.643 222.254 228.55 225.409 227.502 228.305C225.608 233.498 220.654 238.22 222.093 243.559C225.302 242.636 228.858 241.437 230.371 238.459C230.905 237.406 231.171 236.15 232.071 235.381C233.868 233.853 236.928 235.235 238.837 233.83C240.279 232.762 240.331 230.573 239.688 228.892C239.046 227.21 237.94 225.731 237.447 224.001C236.588 220.882 237.962 217.583 237.708 214.359C237.589 212.865 237.129 211.434 237.096 209.947C237.032 207.059 238.631 204.343 240.757 202.382C242.883 200.421 245.509 199.121 248.094 197.839L257.867 192.983C261.412 191.227 265.298 189.086 266.46 185.305C266.9 183.89 266.904 182.38 266.927 180.901C267.259 158.295 272.923 136.145 278.552 114.25C279.427 110.857 280.316 107.45 281.616 104.193C282.916 100.935 285.46 98.3199 286.756 95.2938C279.236 94.4122 272.366 100.916 264.554 99.9375Z" fill="#464353"/>
<path d="M318.429 241.754C319.292 246.985 319.819 252.327 320.23 257.643C313.505 263.217 306.265 268.066 298.909 272.564C298.491 272.822 298.069 273.076 297.646 273.311L297.613 273.49C297.596 273.448 297.576 273.407 297.553 273.367C296.982 272.134 295.984 271.149 294.744 270.595C291.987 264.805 289.232 259.014 286.48 253.223C284.986 250.097 283.491 246.94 282.744 243.566C282.744 243.495 282.711 243.421 282.699 243.35C282.131 240.735 282.001 238.019 281.623 235.37C281.432 233.853 281.091 232.359 280.604 230.909C280.155 229.62 279.539 228.369 278.993 227.11C278.321 225.556 277.757 223.983 277.731 222.306C277.731 221.771 277.764 221.185 277.503 220.736C277.223 220.351 276.878 220.017 276.483 219.75C275.99 219.313 275.616 218.757 275.396 218.136C275.177 217.515 275.119 216.847 275.228 216.197C272.986 216.313 271.723 218.723 270.823 220.766C270.005 222.765 268.93 224.649 267.625 226.37C266.674 227.6 265.465 228.606 264.084 229.318C263.96 229.378 263.837 229.437 263.71 229.49C260.591 230.864 256.948 230.379 253.567 229.759C250.612 229.217 247.556 228.544 245.18 226.706L244.926 226.505C244.223 225.92 243.595 225.25 243.058 224.51C241.067 221.79 240.185 218.207 239.696 214.797C239.651 214.475 239.606 214.154 239.565 213.833C239.226 211.423 239.132 208.984 239.285 206.555C239.33 205.957 239.393 205.36 239.472 204.766C239.524 204.392 239.58 203.989 239.644 203.6C239.642 203.589 239.642 203.578 239.644 203.567C239.741 202.95 239.845 202.33 239.95 201.699C240.324 199.58 240.697 197.406 241.818 195.583C242.555 194.449 243.486 193.452 244.568 192.639C244.971 192.322 245.386 192.019 245.804 191.728C246.484 191.257 247.183 190.809 247.892 190.386C249.678 189.318 251.553 188.405 253.496 187.659C253.959 187.48 254.43 187.312 254.901 187.151C256.731 186.5 258.7 186.344 260.609 186.699C262.301 186.944 264.011 187.044 265.72 186.998C270.102 186.912 274.503 186.075 278.878 185.534C284.952 184.786 291.479 184.697 296.776 187.775C297.03 187.921 297.277 188.074 297.523 188.235C300.138 189.946 302.245 192.344 303.945 195.023C304.319 195.587 304.644 196.166 304.965 196.752C305.706 198.099 306.375 199.483 306.971 200.899C307.324 201.595 307.514 202.361 307.528 203.141C307.519 203.289 307.499 203.436 307.468 203.581C307.367 204.112 307.165 204.628 307.094 205.165C306.859 207.202 308.589 208.901 309.235 210.84C309.653 212.103 309.609 213.455 309.844 214.785C310.184 216.653 311.099 218.334 311.921 220.015C313.22 222.722 314.331 225.514 315.246 228.373C315.896 230.364 316.453 232.385 316.942 234.425C317.102 235.08 317.252 235.736 317.394 236.393C317.801 238.202 318.134 239.972 318.429 241.754Z" fill="#F86D70"/>
<path d="M358.261 186.43V189.045L357.779 189.038L357.241 189.03L351.233 188.955L336.432 188.761L332.278 188.709L331.202 188.694L324.967 188.615L316.18 188.5L297.538 188.257L265.189 187.838L253.515 187.689L248.83 187.629L244.519 187.573L241.833 187.536L239.289 187.502L220.426 187.259L215.196 187.192L214.057 187.177L213.317 185.268L207.941 171.404L206.959 168.871L207.706 165.883L211.068 168.124L213.138 168.382L247.212 172.619L253.608 173.414L267.169 175.103L280.454 176.754L285.662 177.4L316.479 181.233L325.09 182.306L332.218 183.191L357.562 186.344L358.261 186.43Z" fill="#3F3D56"/>
<path d="M207.706 165.883L214.43 183.441L358.261 186.43V167.377L207.706 165.883Z" fill="#504F60"/>
<path d="M215.177 185.31L216.298 292.528L221.528 291.781L220.408 185.31H215.177Z" fill="#3F3D56"/>
<path d="M357.779 189.034H357.241C356.37 195.719 354.929 202.317 352.933 208.756L351.234 188.956L351.163 188.111L357.446 187.387L357.656 187.364L357.779 189.034Z" fill="#3F3D56"/>
<path d="M337.34 176.343L282.61 177.464L265.611 171.86L311.189 169.245L337.34 176.343Z" fill="white"/>
<path d="M268.686 154.556C268.106 154.779 267.592 155.145 267.192 155.621C266.879 156.136 266.689 156.716 266.635 157.317L265.716 162.797C265.576 163.299 265.601 163.832 265.787 164.318C266.026 164.777 266.721 165.016 267.068 164.635C267.024 165.708 267.117 166.851 267.741 167.725C268.365 168.599 269.672 169.059 270.554 168.45C270.692 168.675 270.878 168.867 271.098 169.014C271.318 169.16 271.567 169.257 271.828 169.298C272.09 169.338 272.356 169.321 272.611 169.249C272.865 169.176 273.1 169.048 273.3 168.876C272.769 169.055 272.732 169.866 273.109 170.277C273.532 170.649 274.07 170.865 274.633 170.885C281.198 171.811 287.891 170.969 294.023 168.446C294.602 168.207 293.077 161.068 292.924 160.335C292.551 158.613 292.364 156.51 290.911 155.352C287.436 152.58 281.265 152.034 277.032 152.363C274.14 152.582 271.312 153.325 268.686 154.556Z" fill="#FBBEBE"/>
<path opacity="0.1" d="M324.373 155.385C310.86 155.643 297.067 155.863 284.171 151.817C285.403 156.591 285.318 161.609 283.925 166.338L347.105 171.569C349.784 171.789 360.891 173.044 363.502 172.413C366.113 171.782 341.591 163.705 342.581 161.205C345.305 154.32 354.428 150.286 347.856 150.028C339.563 149.699 332.73 155.228 324.373 155.385Z" fill="black"/>
<path d="M324.746 156.133C311.234 156.39 297.441 156.611 284.545 152.565C285.777 157.339 285.691 162.357 284.298 167.086L347.479 172.316C350.158 172.537 361.264 173.811 363.876 173.161C366.487 172.511 365.874 169.309 366.864 166.81C369.588 159.924 354.801 151.033 348.23 150.775C339.936 150.447 333.103 155.976 324.746 156.133Z" fill="#464353"/>
<path d="M303.261 157.171C303.842 157.393 304.356 157.759 304.756 158.236C305.068 158.751 305.26 159.331 305.316 159.932L306.235 165.412C306.374 165.914 306.349 166.446 306.164 166.933C305.925 167.392 305.226 167.631 304.883 167.25C304.924 168.322 304.834 169.465 304.21 170.34C303.586 171.214 302.279 171.673 301.394 171.064C301.255 171.29 301.07 171.482 300.85 171.629C300.63 171.775 300.38 171.872 300.119 171.912C299.858 171.953 299.591 171.936 299.337 171.863C299.083 171.79 298.848 171.663 298.648 171.49C299.178 171.67 299.219 172.48 298.842 172.891C298.418 173.264 297.878 173.479 297.314 173.5C290.75 174.426 284.058 173.583 277.929 171.061C277.35 170.822 278.87 163.682 279.027 162.95C279.401 161.228 279.587 159.125 281.041 157.967C284.511 155.195 290.687 154.649 294.919 154.978C297.81 155.197 300.637 155.94 303.261 157.171Z" fill="#FBBEBE"/>
<path d="M213.975 145.272C212.734 146.871 211.49 148.504 210.691 150.368C209.163 153.925 209.387 157.952 209.641 161.815C209.712 162.936 209.802 164.079 210.388 165.009C210.895 165.712 211.564 166.282 212.338 166.671C215.574 168.509 219.362 169.059 223.06 169.47C228.724 170.097 234.407 170.48 240.111 170.616C254.24 170.96 268.585 169.806 282.348 173.007C280.645 170.418 280.648 166.993 281.601 164.041C282.554 161.09 284.388 158.52 286.185 155.991C279.886 153.996 273.132 157.111 266.534 156.801C259.761 156.484 253.493 152.569 246.712 152.572C245.255 152.572 243.772 152.755 242.356 152.404C240.94 152.053 239.569 150.985 239.438 149.531C241.246 149.939 242.961 148.392 243.708 146.696C244.456 145 244.59 143.083 245.315 141.376C247.119 137.128 251.994 135.16 255.028 131.663C255.506 131.11 255.958 130.456 255.943 129.724C255.872 129.104 255.611 128.52 255.196 128.054C252.674 124.692 248.875 122.824 245.718 120.209C244.62 119.297 242.405 115.86 241.172 115.543C238.885 114.956 236.946 118.259 235.46 119.869C227.953 128.025 220.791 136.493 213.975 145.272Z" fill="#464353"/>
<path opacity="0.07" d="M289.095 144.323C290.042 145.026 290.883 145.86 291.594 146.8C291.948 147.272 292.201 147.813 292.335 148.388C292.469 148.963 292.483 149.56 292.375 150.14C292.259 149.057 292.5 147.966 293.062 147.033C293.624 146.101 294.476 145.377 295.487 144.973L289.095 144.323Z" fill="black"/>
<g opacity="0.1">
<path opacity="0.1" d="M309.814 46.3543C309.374 45.1867 308.868 44.0454 308.297 42.936C307.928 43.007 307.564 43.1005 307.206 43.2162C307.847 44.2808 308.425 45.3823 308.936 46.515C309.224 46.4403 309.515 46.388 309.814 46.3543Z" fill="black"/>
<path opacity="0.1" d="M331.489 61.085C331.59 61.1672 331.687 61.2606 331.784 61.3465C331.777 61.3222 331.769 61.2985 331.758 61.2755C331.674 61.2132 331.584 61.1497 331.489 61.085Z" fill="black"/>
<path opacity="0.1" d="M296.761 62.7286C296.955 62.5754 297.135 62.4148 297.344 62.2653L297.284 60.4908L293.294 60.4497C292.648 61.0437 291.96 61.8955 292.341 62.6912L296.761 62.7286Z" fill="black"/>
<path opacity="0.1" d="M340.381 92.6002C339.671 93.9227 338.647 95.163 337.246 95.6972C336.167 96.1082 334.979 96.0708 333.824 96.0185C329.887 95.8579 325.882 95.6823 322.161 94.3785C320.42 93.7658 318.754 92.9103 316.931 92.533C314.798 92.0921 312.59 92.3424 310.427 92.5965L300.893 93.7172C298.08 94.046 294.945 94.2925 292.7 92.5666C291.415 91.5803 290.585 90.0449 289.177 89.2529C288.583 88.9167 287.877 88.7 287.492 88.1321C287.249 87.7105 287.12 87.2328 287.119 86.7461C287.089 86.3539 287.07 85.9616 287.055 85.5693C287.015 86.7091 287.036 87.8502 287.119 88.9876C287.12 89.4743 287.249 89.952 287.492 90.3736C287.866 90.9378 288.583 91.1544 289.177 91.4944C290.585 92.2864 291.419 93.8218 292.7 94.8081C294.941 96.5341 298.08 96.3024 300.893 95.9587L310.427 94.838C312.59 94.5839 314.798 94.3336 316.931 94.7745C318.739 95.1481 320.405 96.0073 322.161 96.62C325.897 97.9238 329.887 98.1143 333.824 98.26C334.979 98.3086 336.167 98.3497 337.246 97.9387C338.647 97.4045 339.671 96.1642 340.381 94.8417C341.755 92.2827 342.14 89.3799 341.995 86.4547C341.915 88.5969 341.363 90.6951 340.381 92.6002Z" fill="black"/>
</g>
<path opacity="0.1" d="M309.706 48.7563L314.936 53.613C314.936 53.613 310.453 51.745 309.706 48.7563Z" fill="black"/>
</g>
<defs>
<clipPath id="clip0">
<rect width="367.193" height="300" fill="white"/>
</clipPath>
</defs>
</svg>
